<svg width="32" height="33" viewBox="0 0 32 33" fill="none" xmlns="http://www.w3.org/2000/svg">
    <g clip-path="url(#clip0_1_4123)">
        <path d="M29.4904 20.8429V12.3765V9.87733C29.4904 7.32791 27.4163 5.25384 24.8669 5.25384H20.3684V3.56089C20.3684 2.0139 19.1098 0.755371 17.5628 0.755371H11.9275C10.3806 0.755309 9.12202 2.0139 9.12202 3.56089V5.2539H4.62349C2.07407 5.2539 0 7.32798 0 9.8774V12.3766V23.8728C0 26.4223 2.07407 28.4963 4.62349 28.4963H8.35146V28.6213C8.35146 28.9663 8.63119 29.2461 8.97626 29.2461H10.7153V32.1201C10.7153 32.4652 10.995 32.7449 11.3401 32.7449H25.3147C26.0274 32.7449 26.7292 32.6332 27.4006 32.413C27.7285 32.3053 27.907 31.9524 27.7994 31.6245C27.6918 31.2967 27.3389 31.1183 27.011 31.2256C26.4656 31.4046 25.8949 31.4953 25.3147 31.4953C22.3175 31.4953 19.879 29.0569 19.879 26.0596C19.879 23.0623 22.3175 20.6239 25.3147 20.6239C28.312 20.6239 30.7505 23.0623 30.7505 26.0596C30.7505 26.6398 30.6597 27.2106 30.4807 27.7559C30.3732 28.0838 30.5517 28.4368 30.8796 28.5444C31.2074 28.6518 31.5604 28.4735 31.668 28.1456C31.8883 27.4742 32.0001 26.7723 32.0001 26.0596C32 23.9518 31.0192 22.0691 29.4904 20.8429ZM10.3716 3.56089C10.3716 2.70299 11.0696 2.00496 11.9275 2.00496H17.5628C18.4207 2.00496 19.1188 2.70299 19.1188 3.56089V5.2539H10.3716V3.56089ZM1.24959 9.87733C1.24959 8.017 2.7631 6.50343 4.62349 6.50343H24.8669C26.7273 6.50343 28.2408 8.017 28.2408 9.87733V12.3765C28.2408 13.9613 26.9515 15.2506 25.3667 15.2506H22.93V14.5008C22.93 13.3984 22.0331 12.5015 20.9307 12.5015C19.8282 12.5015 18.9313 13.3984 18.9313 14.5008V15.2506H10.5591V14.5008C10.5591 13.3984 9.66216 12.5015 8.55971 12.5015C7.45726 12.5015 6.56036 13.3984 6.56036 14.5008V15.2506H4.12366C2.53892 15.2506 1.24959 13.9613 1.24959 12.3765V9.87733ZM20.1809 14.5008C20.1809 14.0874 20.5172 13.7511 20.9307 13.7511C21.3441 13.7511 21.6804 14.0874 21.6804 14.5008V17.2499C21.6804 17.6634 21.3441 17.9997 20.9307 17.9997C20.5172 17.9997 20.1809 17.6634 20.1809 17.2499V14.5008ZM7.80995 14.5008C7.80995 14.0874 8.14628 13.7511 8.55971 13.7511C8.97314 13.7511 9.30946 14.0874 9.30946 14.5008V17.2499C9.30946 17.6634 8.97314 17.9997 8.55971 17.9997C8.14628 17.9997 7.80995 17.6634 7.80995 17.2499V14.5008ZM9.60106 25.7472H18.6369C18.6321 25.8507 18.6294 25.9548 18.6294 26.0596C18.6294 26.7328 18.7298 27.3831 18.9158 27.9964H9.60106V25.7472ZM18.8141 24.4976H11.9648V22.2483H19.8254C19.3581 22.9192 19.0107 23.6793 18.8141 24.4976ZM21.4273 31.4953H11.9648V29.246H19.4388C19.9242 30.1375 20.6067 30.9068 21.4273 31.4953ZM20.9512 20.9987H11.3401C10.995 20.9987 10.7153 21.2785 10.7153 21.6235V24.4976H8.97626C8.63119 24.4976 8.35146 24.7773 8.35146 25.1224V27.2467H4.62349C2.7631 27.2467 1.24959 25.7331 1.24959 23.8728V15.3296C1.99291 16.0533 3.00683 16.5002 4.12366 16.5002H6.56036V17.25C6.56036 18.3524 7.45726 19.2493 8.55971 19.2493C9.66216 19.2493 10.5591 18.3524 10.5591 17.25V16.5002H18.9313V17.25C18.9313 18.3524 19.8282 19.2493 20.9307 19.2493C22.0331 19.2493 22.93 18.3524 22.93 17.25V16.5002H25.3667C26.4835 16.5002 27.4975 16.0533 28.2408 15.3296V20.0496C27.3565 19.6173 26.3635 19.3743 25.3147 19.3743C23.6486 19.3742 22.123 19.987 20.9512 20.9987Z" fill="#E60010"/>
        <path d="M25.3145 24.0568C25.7682 24.0568 26.1373 24.3659 26.1373 24.7458C26.1373 25.0908 26.417 25.3706 26.7621 25.3706C27.1072 25.3706 27.3869 25.0908 27.3869 24.7458C27.3869 23.8805 26.7776 23.1459 25.9393 22.8974V22.8106C25.9393 22.4656 25.6596 22.1858 25.3145 22.1858C24.9694 22.1858 24.6897 22.4656 24.6897 22.8106V22.8974C23.8514 23.146 23.2422 23.8805 23.2422 24.7458C23.2422 25.8147 24.1718 26.6843 25.3145 26.6843C25.7682 26.6843 26.1373 26.9933 26.1373 27.3732C26.1373 27.753 25.7682 28.0621 25.3145 28.0621C24.8608 28.0621 24.4918 27.753 24.4918 27.3732C24.4918 27.0281 24.2121 26.7484 23.867 26.7484C23.5219 26.7484 23.2422 27.0281 23.2422 27.3732C23.2422 28.2384 23.8515 28.973 24.6897 29.2215V29.3083C24.6897 29.6534 24.9694 29.9331 25.3145 29.9331C25.6596 29.9331 25.9393 29.6534 25.9393 29.3083V29.2215C26.7776 28.973 27.3869 28.2384 27.3869 27.3732C27.3869 26.3043 26.4573 25.4347 25.3145 25.4347C24.8608 25.4347 24.4918 25.1256 24.4918 24.7458C24.4918 24.3659 24.8608 24.0568 25.3145 24.0568Z" fill="#E60010"/>
        <path d="M29.6004 29.7202C29.4354 29.7202 29.2749 29.7871 29.1587 29.9033C29.0418 30.0195 28.9756 30.1807 28.9756 30.345C28.9756 30.5093 29.0418 30.6705 29.1587 30.7867C29.2749 30.9029 29.4354 30.9698 29.6004 30.9698C29.7647 30.9698 29.9259 30.903 30.0421 30.7867C30.1583 30.6705 30.2246 30.5093 30.2246 30.345C30.2246 30.1807 30.1583 30.0195 30.0421 29.9033C29.9259 29.7871 29.7647 29.7202 29.6004 29.7202Z" fill="#E60010"/>
    </g>
    <defs>
        <clipPath id="clip0_1_4123">
            <rect width="32" height="32" fill="white" transform="translate(0 0.75)"/>
        </clipPath>
    </defs>
</svg>
