<svg width="33" height="32" viewBox="0 0 33 32" fill="none" xmlns="http://www.w3.org/2000/svg">
    <g clip-path="url(#clip0_1_4143)">
        <path d="M29.25 17.0782V7.375C29.25 5.65188 27.8481 4.25 26.125 4.25H25.75V3.125C25.75 2.77981 25.4702 2.5 25.125 2.5C24.7798 2.5 24.5 2.77981 24.5 3.125V4.25H18.875V3.125C18.875 2.77981 18.5952 2.5 18.25 2.5C17.9048 2.5 17.625 2.77981 17.625 3.125V4.25H12V3.125C12 2.77981 11.7202 2.5 11.375 2.5C11.0298 2.5 10.75 2.77981 10.75 3.125V4.25H5.125V3.125C5.125 2.77981 4.84519 2.5 4.5 2.5C4.15481 2.5 3.875 2.77981 3.875 3.125V4.25H3.625C1.90188 4.25 0.5 5.65188 0.5 7.375V25.125C0.5 26.8481 1.90188 28.25 3.625 28.25H21.9238C23.0203 29.0364 24.3632 29.5 25.8125 29.5C29.5 29.5 32.5 26.5 32.5 22.8125C32.5 20.3811 31.1956 18.2489 29.25 17.0782ZM1.75 25.125V10.5H12.0625C12.4077 10.5 12.6875 10.2202 12.6875 9.875C12.6875 9.52981 12.4077 9.25 12.0625 9.25H1.75V7.375C1.75 6.34113 2.59113 5.5 3.625 5.5H3.875V6.625C3.875 6.97019 4.15481 7.25 4.5 7.25C4.84519 7.25 5.125 6.97019 5.125 6.625V5.5H10.75V6.625C10.75 6.97019 11.0298 7.25 11.375 7.25C11.7202 7.25 12 6.97019 12 6.625V5.5H17.625V6.625C17.625 6.97019 17.9048 7.25 18.25 7.25C18.5952 7.25 18.875 6.97019 18.875 6.625V5.5H24.5V6.625C24.5 6.97019 24.7798 7.25 25.125 7.25C25.4702 7.25 25.75 6.97019 25.75 6.625V5.5H26.125C27.1589 5.5 28 6.34113 28 7.375V9.25H17.6875C17.3423 9.25 17.0625 9.52981 17.0625 9.875C17.0625 10.2202 17.3423 10.5 17.6875 10.5H28V16.4928C27.3143 16.2548 26.5783 16.125 25.8125 16.125C25.6231 16.125 25.4355 16.1334 25.25 16.1489V13.375C25.25 13.0298 24.9702 12.75 24.625 12.75H21.125C20.7798 12.75 20.5 13.0298 20.5 13.375V16.875C20.5 17.2202 20.7798 17.5 21.125 17.5H21.7556C20.1576 18.7232 19.125 20.6494 19.125 22.8125C19.125 24.3964 19.6788 25.8531 20.6025 27H3.625C2.59113 27 1.75 26.1589 1.75 25.125ZM24 16.25H21.75V14H24V16.25ZM25.8125 28.25C22.8143 28.25 20.375 25.8107 20.375 22.8125C20.375 19.8143 22.8143 17.375 25.8125 17.375C28.8107 17.375 31.25 19.8143 31.25 22.8125C31.25 25.8107 28.8107 28.25 25.8125 28.25Z" fill="white"/>
        <path d="M25.8126 20.8091C26.2664 20.8091 26.6356 21.1183 26.6356 21.4983C26.6356 21.8435 26.9154 22.1233 27.2606 22.1233C27.6058 22.1233 27.8856 21.8435 27.8856 21.4983C27.8856 20.6327 27.2761 19.898 26.4376 19.6494V19.5625C26.4376 19.2173 26.1578 18.9375 25.8126 18.9375C25.4674 18.9375 25.1876 19.2173 25.1876 19.5625V19.6494C24.349 19.8979 23.7395 20.6327 23.7395 21.4983C23.7395 22.5676 24.6694 23.4375 25.8126 23.4375C26.2664 23.4375 26.6356 23.7467 26.6356 24.1267C26.6356 24.5067 26.2664 24.8159 25.8126 24.8159C25.3588 24.8159 24.9895 24.5067 24.9895 24.1267C24.9895 23.7815 24.7097 23.5017 24.3645 23.5017C24.0193 23.5017 23.7395 23.7815 23.7395 24.1267C23.7395 24.9923 24.349 25.727 25.1876 25.9756V26.0625C25.1876 26.4077 25.4674 26.6875 25.8126 26.6875C26.1578 26.6875 26.4376 26.4077 26.4376 26.0625V25.9756C27.2761 25.7271 27.8856 24.9923 27.8856 24.1267C27.8856 23.0574 26.9557 22.1875 25.8126 22.1875C25.3588 22.1875 24.9895 21.8783 24.9895 21.4983C24.9895 21.1183 25.3588 20.8091 25.8126 20.8091Z" fill="white"/>
        <path d="M8.625 12.75H5.125C4.77981 12.75 4.5 13.0298 4.5 13.375V16.875C4.5 17.2202 4.77981 17.5 5.125 17.5H8.625C8.97019 17.5 9.25 17.2202 9.25 16.875V13.375C9.25 13.0298 8.97019 12.75 8.625 12.75ZM8 16.25H5.75V14H8V16.25Z" fill="white"/>
        <path d="M16.625 12.75H13.125C12.7798 12.75 12.5 13.0298 12.5 13.375V16.875C12.5 17.2202 12.7798 17.5 13.125 17.5H16.625C16.9702 17.5 17.25 17.2202 17.25 16.875V13.375C17.25 13.0298 16.9702 12.75 16.625 12.75ZM16 16.25H13.75V14H16V16.25Z" fill="white"/>
        <path d="M8.625 19.75H5.125C4.77981 19.75 4.5 20.0298 4.5 20.375V23.875C4.5 24.2202 4.77981 24.5 5.125 24.5H8.625C8.97019 24.5 9.25 24.2202 9.25 23.875V20.375C9.25 20.0298 8.97019 19.75 8.625 19.75ZM8 23.25H5.75V21H8V23.25Z" fill="white"/>
        <path d="M16.625 19.75H13.125C12.7798 19.75 12.5 20.0298 12.5 20.375V23.875C12.5 24.2202 12.7798 24.5 13.125 24.5H16.625C16.9702 24.5 17.25 24.2202 17.25 23.875V20.375C17.25 20.0298 16.9702 19.75 16.625 19.75ZM16 23.25H13.75V21H16V23.25Z" fill="white"/>
        <path d="M14.875 10.5C15.0394 10.5 15.2006 10.4331 15.3169 10.3169C15.4331 10.2006 15.5 10.0394 15.5 9.875C15.5 9.71062 15.4331 9.54937 15.3169 9.43312C15.2006 9.31687 15.0394 9.25 14.875 9.25C14.7106 9.25 14.5494 9.31687 14.4331 9.43312C14.3169 9.54937 14.25 9.71062 14.25 9.875C14.25 10.0394 14.3169 10.2006 14.4331 10.3169C14.5494 10.4331 14.7106 10.5 14.875 10.5Z" fill="white"/>
    </g>
    <defs>
        <clipPath id="clip0_1_4143">
            <rect width="32" height="32" fill="white" transform="translate(0.5)"/>
        </clipPath>
    </defs>
</svg>
