<svg width="25" height="24" viewBox="0 0 25 24" fill="none" xmlns="http://www.w3.org/2000/svg">
    <g clip-path="url(#clip0_29_1286)">
        <path d="M21.5 7.5V21H8V7.5H21.5ZM21.5 6H8C7.60218 6 7.22064 6.15804 6.93934 6.43934C6.65804 6.72064 6.5 7.10218 6.5 7.5V21C6.5 21.3978 6.65804 21.7794 6.93934 22.0607C7.22064 22.342 7.60218 22.5 8 22.5H21.5C21.8978 22.5 22.2794 22.342 22.5607 22.0607C22.842 21.7794 23 21.3978 23 21V7.5C23 7.10218 22.842 6.72064 22.5607 6.43934C22.2794 6.15804 21.8978 6 21.5 6Z"
              fill="black"/>
        <path d="M3.5 13.5H2V3C2 2.60218 2.15804 2.22064 2.43934 1.93934C2.72064 1.65804 3.10218 1.5 3.5 1.5H14V3H3.5V13.5Z"
              fill="black"/>
    </g>
    <defs>
        <clipPath id="clip0_29_1286">
            <rect width="24" height="24" fill="white" transform="translate(0.5)"/>
        </clipPath>
    </defs>
</svg>
