<svg width="20" height="19" viewBox="0 0 20 19" fill="none" xmlns="http://www.w3.org/2000/svg">
<path fill-rule="evenodd" clip-rule="evenodd" d="M14.692 5.06752L12.7566 6.98842L12.8875 7.16259C13.285 7.69117 13.4999 8.3346 13.4999 8.99588C13.4859 9.43955 13.3848 9.87615 13.2024 10.2809C13.0196 10.6867 12.7585 11.0525 12.4342 11.3574C12.1098 11.6622 11.7286 11.9002 11.3123 12.0576C10.8959 12.2151 10.4526 12.2887 10.0077 12.2747L9.9964 12.2749C9.22464 12.2855 8.471 12.0407 7.85277 11.5786C7.23454 11.1165 6.78639 10.4631 6.57807 9.71987L6.52691 9.53734H5.30628L5.24308 9.69361C5.07318 10.1137 4.78036 10.4728 4.40298 10.7237C4.02559 10.9746 3.58124 11.1055 3.12809 11.0996L3.117 11.1C2.83134 11.1089 2.54671 11.0615 2.27939 10.9604C2.01207 10.8593 1.76729 10.7066 1.55905 10.5108C1.3508 10.3151 1.18318 10.0802 1.06576 9.81962C0.949476 9.56156 0.884687 9.28332 0.875 9.00049C0.897535 8.42858 1.14462 7.88846 1.56286 7.49741C1.9831 7.10448 2.54191 6.89431 3.11695 6.91247L3.12808 6.91232C3.58123 6.90646 4.02559 7.03757 4.40298 7.28849C4.78036 7.53941 5.07318 7.89844 5.24308 8.31857L5.30628 8.47484H6.52691L6.57807 8.29232C6.78639 7.54913 7.23454 6.89564 7.85277 6.43355C8.471 5.97146 9.22464 5.72668 9.9964 5.73734L9.99956 5.73734C10.6266 5.73807 11.2431 5.89923 11.7902 6.2055L11.9553 6.2979L13.8879 4.3653L13.7908 4.19881C13.6181 3.90296 13.5263 3.56683 13.5248 3.22428C13.525 2.62774 13.762 2.05568 14.1839 1.63385C14.6058 1.21189 15.1781 0.974842 15.7748 0.974842C16.3716 0.974842 16.9439 1.21189 17.3658 1.63385C17.7869 2.05491 18.0238 2.62568 18.0248 3.22105C18.0157 3.5054 17.9508 3.78521 17.8339 4.04462C17.7165 4.30519 17.5489 4.54006 17.3407 4.7358C17.1324 4.93155 16.8876 5.08434 16.6203 5.18543C16.353 5.28652 16.0684 5.3339 15.7827 5.32493L15.7785 5.32487C15.4582 5.32017 15.1417 5.25455 14.8459 5.13151L14.692 5.06752ZM16.9591 3.26526L16.9643 3.23304L16.9612 3.20053C16.9326 2.90795 16.7893 2.63857 16.5628 2.45126C16.3416 2.26846 16.0587 2.17834 15.7731 2.19915C15.4894 2.18242 15.2096 2.27371 14.9901 2.45512C14.7652 2.64103 14.6214 2.90705 14.5889 3.19703L14.5851 3.23126L14.5906 3.26526C14.6367 3.54614 14.781 3.80152 14.9979 3.9858C15.2149 4.17007 15.4902 4.27124 15.7748 4.27124C16.0595 4.27124 16.3348 4.17007 16.5518 3.9858C16.7687 3.80152 16.913 3.54614 16.9591 3.26526ZM1.9389 8.97203L1.93599 8.99805L1.93853 9.02412C1.9671 9.317 2.1093 9.58703 2.33462 9.7763C2.55507 9.96148 2.83793 10.0549 3.12485 10.0379C3.41177 10.0549 3.69462 9.96148 3.91507 9.7763C4.1404 9.58703 4.28259 9.317 4.31117 9.02412L4.31371 8.99805L4.3108 8.97203C4.27833 8.68205 4.13447 8.41603 3.90957 8.23012C3.68968 8.04834 3.40914 7.95705 3.12485 7.97425C2.84055 7.95705 2.56002 8.04834 2.34013 8.23012C2.11523 8.41603 1.97137 8.68205 1.9389 8.97203ZM7.56278 8.98517L7.56192 8.99984L7.56278 9.0145C7.59892 9.62973 7.87657 10.2058 8.3353 10.6173C8.79113 11.0263 9.38911 11.2399 10.0006 11.2126C10.6107 11.2363 11.2063 11.0215 11.661 10.6136C12.1187 10.203 12.3972 9.62949 12.4368 9.01597L12.4379 8.99983L12.4368 8.98369C12.3972 8.37096 12.118 7.79844 11.6596 7.38986C11.2046 6.98423 10.6092 6.77252 10.0006 6.79953C9.39062 6.76884 8.79284 6.97941 8.33667 7.38606C7.8772 7.79564 7.5989 8.37071 7.56278 8.98517Z" fill="#D0981F"/>
<path fill-rule="evenodd" clip-rule="evenodd" d="M4.04897 4.0336C3.75841 4.16173 3.44402 4.22691 3.12647 4.22485L3.117 4.22497C2.83134 4.23394 2.54672 4.18652 2.27939 4.08543C2.01207 3.98434 1.76729 3.83155 1.55905 3.6358C1.3508 3.44006 1.18318 3.20519 1.06576 2.94462C0.949476 2.68656 0.884687 2.40831 0.875 2.12549C0.897535 1.55358 1.14462 1.01346 1.56286 0.62241C1.9831 0.229479 2.54192 0.0190595 3.11696 0.0372176L3.12485 0.0374667L3.13274 0.0372176C3.70778 0.0190595 4.26659 0.229479 4.68684 0.62241C5.10588 1.01421 5.3531 1.55563 5.37482 2.12876C5.37255 2.46977 5.28089 2.80425 5.10894 3.09881L5.01204 3.26481L7.11464 5.37949C6.82661 5.5978 6.56353 5.84724 6.33019 6.12327L4.20701 3.9639L4.04897 4.0336ZM4.31117 2.14912L4.31371 2.12305L4.3108 2.09703C4.27833 1.80705 4.13447 1.54103 3.90957 1.35512C3.68968 1.17334 3.40914 1.08205 3.12485 1.09925C2.84055 1.08205 2.56002 1.17334 2.34013 1.35512C2.11523 1.54103 1.97137 1.80705 1.9389 2.09703L1.93599 2.12305L1.93853 2.14912C1.9671 2.442 2.1093 2.71203 2.33462 2.9013C2.55508 3.08648 2.83793 3.17994 3.12485 3.16291C3.41177 3.17994 3.69462 3.08648 3.91507 2.9013C4.1404 2.71203 4.28259 2.442 4.31117 2.14912Z" fill="#D0981F"/>
<path fill-rule="evenodd" clip-rule="evenodd" d="M15.9507 13.9786C16.2413 13.8505 16.5557 13.7853 16.8732 13.7873L16.883 13.7872C17.4506 13.7687 18.0029 13.973 18.4219 14.3564C18.8392 14.7382 19.0913 15.2675 19.1248 15.8319C19.123 16.4261 18.8861 16.9955 18.4658 17.4158C18.0439 17.8378 17.4716 18.0748 16.8748 18.0748C16.2781 18.0748 15.7058 17.8378 15.2839 17.4158C14.8619 16.9939 14.6248 16.4216 14.6249 15.8248L14.6248 15.823C14.6224 15.4815 14.7102 15.1454 14.8795 14.8487L14.9741 14.683L12.8776 12.5866C13.1649 12.3776 13.4286 12.1381 13.6643 11.8722L15.7922 14.0485L15.9507 13.9786ZM15.6906 15.8344L15.6854 15.8666L15.6885 15.8991C15.7171 16.192 15.8593 16.462 16.0846 16.6513C16.3051 16.8365 16.5879 16.9299 16.8748 16.9129C17.1618 16.9299 17.4446 16.8365 17.6651 16.6513C17.8904 16.462 18.0326 16.192 18.0612 15.8991L18.0643 15.8666L18.0591 15.8344C18.013 15.5535 17.8687 15.2982 17.6518 15.1139C17.4348 14.9296 17.1595 14.8284 16.8748 14.8284C16.5902 14.8284 16.3149 14.9296 16.0979 15.1139C15.881 15.2982 15.7367 15.5535 15.6906 15.8344Z" fill="#D0981F"/>
</svg>
