<svg width="32" height="33" viewBox="0 0 32 33" fill="none" xmlns="http://www.w3.org/2000/svg">
    <g clip-path="url(#clip0_1_4134)">
        <path d="M31.4992 25.5482H27.69V15.8087H31.4992C31.5655 15.8095 31.6312 15.7971 31.6927 15.7722C31.7541 15.7474 31.81 15.7106 31.8571 15.664C31.9042 15.6174 31.9416 15.5619 31.9671 15.5008C31.9927 15.4396 32.0058 15.374 32.0058 15.3078C32.0058 15.2415 31.9927 15.1759 31.9671 15.1147C31.9416 15.0536 31.9042 14.9981 31.8571 14.9515C31.81 14.9049 31.7541 14.8682 31.6927 14.8433C31.6312 14.8185 31.5655 14.8061 31.4992 14.8068H27.5637C27.3316 14.807 27.109 14.8994 26.9449 15.0635C26.7807 15.2277 26.6884 15.4502 26.6881 15.6824V16.0961H24.3786C24.2751 16.0962 24.1736 16.0681 24.0849 16.0149L17.9583 12.339C17.5896 12.1177 17.1677 12.0008 16.7377 12.0007H12.7091C12.3479 12.0017 11.9919 12.0861 11.6688 12.2475C11.3457 12.4089 11.0643 12.6428 10.8466 12.931L8.49747 16.0202H5.31235V15.6824C5.31209 15.4502 5.21974 15.2277 5.05559 15.0635C4.89143 14.8994 4.66887 14.807 4.43672 14.8068H0.501225C0.434966 14.8061 0.369218 14.8185 0.307789 14.8433C0.246359 14.8682 0.190468 14.9049 0.143352 14.9515C0.0962363 14.9981 0.0588311 15.0536 0.0333024 15.1147C0.00777377 15.1759 -0.00537109 15.2415 -0.00537109 15.3078C-0.00537109 15.374 0.00777377 15.4396 0.0333024 15.5008C0.0588311 15.5619 0.0962363 15.6174 0.143352 15.664C0.190468 15.7106 0.246359 15.7474 0.307789 15.7722C0.369218 15.7971 0.434966 15.8095 0.501225 15.8087H4.31041V25.5482H0.501225C0.434966 25.5475 0.369218 25.5599 0.307789 25.5847C0.246359 25.6096 0.190468 25.6464 0.143352 25.693C0.0962363 25.7396 0.0588311 25.795 0.0333024 25.8562C0.00777377 25.9173 -0.00537109 25.9829 -0.00537109 26.0492C-0.00537109 26.1155 0.00777377 26.1811 0.0333024 26.2422C0.0588311 26.3034 0.0962363 26.3588 0.143352 26.4054C0.190468 26.452 0.246359 26.4888 0.307789 26.5137C0.369218 26.5385 0.434966 26.5509 0.501225 26.5502H4.43672C4.66887 26.5499 4.89144 26.4576 5.05559 26.2934C5.21975 26.1293 5.31209 25.9067 5.31235 25.6745V24.3786H6.08435C6.03544 24.6982 6.07921 25.0252 6.21045 25.3207C6.3417 25.6162 6.55492 25.8678 6.82485 26.0459C6.9358 26.1189 7.07124 26.145 7.20138 26.1182C7.33152 26.0914 7.44569 26.0141 7.51879 25.9031C7.59188 25.7922 7.6179 25.6567 7.59113 25.5266C7.56436 25.3964 7.48699 25.2823 7.37604 25.2092C7.22397 25.109 7.11793 24.9525 7.08123 24.7741C7.04453 24.5958 7.08019 24.4101 7.18035 24.258L7.63172 23.5729C7.73232 23.4218 7.88865 23.3166 8.06653 23.2805C8.24442 23.2443 8.42938 23.2801 8.58097 23.3799C8.73256 23.4798 8.83845 23.6356 8.87547 23.8133C8.91249 23.991 8.87764 24.1762 8.77854 24.3282L8.3271 25.0135C8.08125 25.3876 7.99384 25.844 8.08406 26.2825C8.17428 26.721 8.43476 27.1057 8.80835 27.3524C8.9193 27.4255 9.05474 27.4515 9.18488 27.4248C9.31502 27.398 9.42919 27.3206 9.50229 27.2097C9.57538 27.0987 9.6014 26.9633 9.57463 26.8331C9.54786 26.703 9.47049 26.5888 9.35954 26.5157C9.20766 26.4154 9.10177 26.2589 9.06509 26.0807C9.02841 25.9024 9.06392 25.7168 9.16385 25.5647L9.61522 24.8795C9.71594 24.7287 9.87218 24.6239 10.0499 24.588C10.2276 24.552 10.4123 24.5877 10.5637 24.6874C10.7151 24.7871 10.821 24.9426 10.8582 25.1201C10.8954 25.2975 10.8609 25.4824 10.7622 25.6345L10.3108 26.3198C10.065 26.6939 9.97761 27.1503 10.0678 27.5888C10.1581 28.0273 10.4185 28.4121 10.7921 28.6588C10.847 28.6955 10.9087 28.721 10.9735 28.7338C11.0383 28.7466 11.1051 28.7464 11.1698 28.7333C11.2346 28.7202 11.2961 28.6945 11.3509 28.6575C11.4056 28.6205 11.4526 28.5731 11.4889 28.5179C11.5253 28.4627 11.5503 28.4009 11.5627 28.336C11.575 28.2711 11.5744 28.2043 11.5609 28.1397C11.5474 28.075 11.5212 28.0136 11.4838 27.9591C11.4465 27.9046 11.3987 27.858 11.3433 27.822C11.1914 27.7217 11.0855 27.5652 11.0489 27.387C11.0122 27.2087 11.0477 27.0231 11.1477 26.871L11.599 26.1857C11.6992 26.0336 11.8556 25.9275 12.034 25.8908C12.2123 25.854 12.398 25.8897 12.5501 25.9898C12.7022 26.0899 12.8083 26.2464 12.845 26.4247C12.8818 26.6031 12.8462 26.7888 12.746 26.9409L12.294 27.6267C12.0481 28.0009 11.9607 28.4572 12.051 28.8957C12.1412 29.3342 12.4016 29.719 12.7752 29.9657C12.8862 30.0378 13.0211 30.063 13.1506 30.0359C13.2801 30.0088 13.3936 29.9316 13.4664 29.8211C13.5391 29.7106 13.5653 29.5759 13.5391 29.4462C13.5128 29.3165 13.4364 29.2025 13.3264 29.129C13.1745 29.0286 13.0687 28.8722 13.032 28.6939C12.9953 28.5156 13.0309 28.3301 13.1308 28.1779L13.5822 27.4927C13.6823 27.3406 13.8388 27.2346 14.0172 27.1979C14.1956 27.1612 14.3812 27.1969 14.5333 27.297C14.6854 27.3972 14.7914 27.5537 14.8281 27.7321C14.8648 27.9105 14.8291 28.0961 14.7289 28.2482C14.6864 28.3127 14.6596 28.3862 14.6505 28.4629C14.6487 28.4665 14.6465 28.4698 14.6448 28.4734C14.5883 28.5937 14.5818 28.7314 14.6269 28.8564C14.6719 28.9814 14.7647 29.0834 14.885 29.14C15.1143 29.2479 15.3485 29.3554 15.5817 29.4597C15.8438 29.6154 16.1412 29.7019 16.4459 29.711C16.7506 29.7201 17.0527 29.6516 17.3236 29.5118C17.5945 29.372 17.8254 29.1655 17.9945 28.9119C18.1637 28.6583 18.2655 28.3658 18.2904 28.0619C18.5011 28.1469 18.7262 28.1908 18.9534 28.1911C19.0936 28.191 19.2334 28.1747 19.3699 28.1424C19.7558 28.0517 20.1011 27.836 20.3518 27.5288C20.6025 27.2216 20.7446 26.8402 20.7561 26.4439C20.9315 26.5005 21.1147 26.5294 21.299 26.5297C21.4392 26.5296 21.5789 26.5133 21.7153 26.481C22.1055 26.3894 22.4538 26.17 22.7051 25.8579C22.9563 25.5457 23.0962 25.1585 23.1024 24.7579C23.2258 24.7846 23.3516 24.7982 23.4778 24.7982C23.6181 24.7981 23.7578 24.7818 23.8942 24.7495C24.2408 24.6679 24.5554 24.4853 24.7983 24.2249C25.0411 23.9644 25.2014 23.6379 25.2587 23.2864C25.316 22.935 25.2678 22.5744 25.1202 22.2503C24.9727 21.9263 24.7324 21.6532 24.4297 21.4657L15.0771 15.6488H15.0767L15.0749 15.6477C15.072 15.6459 15.069 15.6445 15.0661 15.6429C14.7586 15.4525 14.3915 15.3829 14.0357 15.4474C13.6798 15.5119 13.3605 15.7059 13.1393 15.992L11.2561 18.4064C11.1503 18.5426 11.0185 18.6566 10.8684 18.7417C10.7183 18.8269 10.5529 18.8815 10.3816 18.9024C10.2103 18.9232 10.0366 18.91 9.87044 18.8635C9.70429 18.8169 9.54899 18.738 9.4135 18.6311C9.27801 18.5243 9.165 18.3917 9.08098 18.241C8.99697 18.0903 8.94361 17.9244 8.92398 17.753C8.90435 17.5816 8.91884 17.4079 8.96662 17.2421C9.0144 17.0763 9.09451 16.9216 9.20235 16.7869L11.6475 13.5328C11.7715 13.3685 11.9319 13.2352 12.1161 13.1432C12.3003 13.0512 12.5032 13.0031 12.7091 13.0026H16.7377C16.986 13.0026 17.2296 13.0701 17.4425 13.1978L23.5691 16.8737C23.8136 17.0204 24.0933 17.0979 24.3784 17.0979H26.6879V25.6745C26.6882 25.9067 26.7805 26.1293 26.9447 26.2934C27.1088 26.4576 27.3314 26.5499 27.5635 26.5502H31.499C31.5653 26.5509 31.631 26.5385 31.6925 26.5137C31.7539 26.4888 31.8098 26.452 31.8569 26.4054C31.904 26.3588 31.9414 26.3034 31.967 26.2422C31.9925 26.1811 32.0056 26.1155 32.0056 26.0492C32.0056 25.9829 31.9925 25.9173 31.967 25.8562C31.9414 25.795 31.904 25.7396 31.8569 25.693C31.8098 25.6464 31.7539 25.6096 31.6925 25.5847C31.631 25.5599 31.5653 25.5475 31.499 25.5482H31.4992ZM10.2257 19.9146C10.5771 19.9147 10.9239 19.8343 11.2394 19.6797C11.555 19.5251 11.831 19.3003 12.0463 19.0226L13.9292 16.6075C13.9994 16.516 14.1012 16.4538 14.2148 16.4333C14.3283 16.4128 14.4454 16.4354 14.5432 16.4967L14.5446 16.4974L14.5454 16.498L23.9017 22.3167C23.9909 22.3719 24.0684 22.4442 24.1297 22.5293C24.191 22.6144 24.235 22.7108 24.2591 22.813C24.2831 22.9151 24.2868 23.021 24.27 23.1245C24.2532 23.2281 24.2161 23.3273 24.1609 23.4166C24.1057 23.5058 24.0335 23.5833 23.9483 23.6446C23.8632 23.7059 23.7668 23.7499 23.6646 23.774C23.5625 23.798 23.4566 23.8018 23.3531 23.7849C23.2495 23.7681 23.1503 23.731 23.061 23.6758L22.2493 23.1957L20.0598 21.7889C19.9502 21.7182 19.8174 21.6931 19.6896 21.7188C19.5618 21.7445 19.4491 21.8191 19.3754 21.9266C19.3017 22.0341 19.2729 22.1662 19.295 22.2947C19.3172 22.4231 19.3886 22.5379 19.494 22.6145C19.5013 22.6202 19.5091 22.626 19.5182 22.6319L21.7155 24.0437L21.7228 24.0484C21.9025 24.1601 22.0305 24.3385 22.0788 24.5445C22.1271 24.7505 22.0917 24.9672 21.9804 25.1472C21.8691 25.3271 21.6909 25.4555 21.4851 25.5043C21.2792 25.553 21.0623 25.5181 20.8822 25.4072L19.9009 24.8552L18.3472 23.842C18.2921 23.8061 18.2305 23.7813 18.1658 23.7692C18.1011 23.7571 18.0347 23.7578 17.9703 23.7713C17.8402 23.7987 17.7264 23.8766 17.6538 23.9879C17.5811 24.0992 17.5557 24.2348 17.5831 24.3648C17.6104 24.4949 17.6883 24.6087 17.7996 24.6814L19.3671 25.7035L19.3772 25.7098C19.4664 25.765 19.5439 25.8372 19.6052 25.9224C19.6665 26.0075 19.7105 26.1039 19.7345 26.2061C19.7586 26.3082 19.7623 26.4141 19.7455 26.5176C19.7286 26.6212 19.6916 26.7204 19.6364 26.8097C19.5812 26.8989 19.5089 26.9764 19.4238 27.0377C19.3386 27.099 19.2422 27.143 19.1401 27.1671C18.9338 27.2157 18.7167 27.1803 18.5365 27.0689L17.449 26.3963L16.6817 25.8697C16.5756 25.7971 16.4456 25.768 16.3186 25.7885C16.1917 25.8091 16.0775 25.8776 15.9997 25.98C15.9219 26.0825 15.8865 26.2109 15.9008 26.3387C15.9151 26.4665 15.9779 26.5839 16.0764 26.6666C16.086 26.6749 16.0973 26.6833 16.1094 26.6916C16.1112 26.6929 16.1129 26.6944 16.1147 26.6957L16.8918 27.229L16.9031 27.2359L16.9227 27.2488C17.0996 27.3585 17.2257 27.5339 17.2735 27.7364C17.3212 27.939 17.2866 28.1522 17.1774 28.3294C17.0658 28.5095 16.8872 28.6379 16.681 28.6865C16.4747 28.7351 16.2576 28.6999 16.0774 28.5885L16.0487 28.5708L16.018 28.5571C15.9275 28.5167 15.8368 28.4755 15.7464 28.4342C15.8462 28.1528 15.8696 27.85 15.8142 27.5566C15.7587 27.2632 15.6265 26.9898 15.431 26.7642C15.2354 26.5386 14.9835 26.3689 14.701 26.2723C14.4185 26.1758 14.1154 26.1559 13.8227 26.2147C13.7312 25.7794 13.4715 25.3977 13.1 25.153C12.7284 24.9083 12.2753 24.8202 11.8392 24.9081C11.7477 24.4729 11.4881 24.0914 11.1168 23.8467C10.7454 23.6019 10.2925 23.5138 9.85647 23.6014C9.78766 23.2753 9.62392 22.977 9.38587 22.7438C9.14782 22.5107 8.8461 22.3532 8.51872 22.2912C8.19133 22.2291 7.85292 22.2654 7.5461 22.3953C7.23927 22.5253 6.97775 22.7431 6.79447 23.0214L6.5606 23.3764H5.31235V17.0222H7.98772C7.89979 17.3639 7.89111 17.7212 7.96235 18.0667C8.03359 18.4123 8.18287 18.737 8.39879 19.0161C8.61471 19.2952 8.89155 19.5212 9.20817 19.6769C9.5248 19.8326 9.87282 19.9139 10.2257 19.9146H10.2257Z" fill="#E60010"/>
        <path d="M16.024 5.7312C16.0898 5.7312 16.1549 5.71824 16.2157 5.69307C16.2765 5.66789 16.3317 5.63098 16.3782 5.58446C16.4247 5.53794 16.4616 5.48271 16.4868 5.42192C16.512 5.36114 16.5249 5.29599 16.5249 5.2302V2.95264C16.5257 2.88638 16.5132 2.82063 16.4884 2.7592C16.4636 2.69778 16.4268 2.64188 16.3802 2.59477C16.3336 2.54765 16.2781 2.51025 16.217 2.48472C16.1558 2.45919 16.0902 2.44604 16.024 2.44604C15.9577 2.44604 15.8921 2.45919 15.8309 2.48472C15.7698 2.51025 15.7143 2.54765 15.6677 2.59477C15.6211 2.64188 15.5843 2.69778 15.5595 2.7592C15.5347 2.82063 15.5222 2.88638 15.523 2.95264V5.23014C15.523 5.29594 15.5359 5.36109 15.5611 5.42188C15.5863 5.48268 15.6232 5.53791 15.6697 5.58444C15.7162 5.63097 15.7715 5.66788 15.8322 5.69306C15.893 5.71824 15.9582 5.7312 16.024 5.7312Z" fill="#E60010"/>
        <path d="M19.6113 7.28526C19.6771 7.28535 19.7423 7.27243 19.8031 7.24726C19.8639 7.22209 19.9191 7.18515 19.9656 7.13858L21.576 5.52814C21.67 5.43419 21.7228 5.30676 21.7228 5.17388C21.7228 5.04101 21.67 4.91357 21.576 4.81961C21.4821 4.72565 21.3547 4.67286 21.2218 4.67285C21.0889 4.67285 20.9615 4.72562 20.8675 4.81958L19.2571 6.43001C19.187 6.50008 19.1393 6.58935 19.12 6.68653C19.1006 6.78371 19.1106 6.88444 19.1485 6.97599C19.1864 7.06753 19.2506 7.14577 19.333 7.20082C19.4154 7.25588 19.5122 7.28526 19.6113 7.28526Z" fill="#E60010"/>
        <path d="M11.9719 7.13861C12.0184 7.18513 12.0736 7.22203 12.1344 7.24721C12.1952 7.27238 12.2603 7.28534 12.3261 7.28534C12.3919 7.28533 12.4571 7.27237 12.5179 7.24719C12.5786 7.22201 12.6339 7.1851 12.6804 7.13858C12.7269 7.09206 12.7638 7.03682 12.789 6.97604C12.8142 6.91525 12.8271 6.8501 12.8271 6.78431C12.8271 6.71851 12.8142 6.65337 12.789 6.59258C12.7638 6.5318 12.7269 6.47657 12.6804 6.43005L11.0699 4.81961C11.0235 4.77251 10.9682 4.73505 10.9073 4.7094C10.8463 4.68375 10.7809 4.67042 10.7148 4.67017C10.6487 4.66992 10.5832 4.68276 10.522 4.70795C10.4609 4.73314 10.4054 4.77018 10.3586 4.81694C10.3119 4.86369 10.2748 4.91924 10.2497 4.98037C10.2245 5.04151 10.2117 5.10702 10.2119 5.17314C10.2122 5.23925 10.2255 5.30467 10.2512 5.3656C10.2768 5.42653 10.3143 5.48179 10.3614 5.52817L11.9719 7.13861Z" fill="#E60010"/>
        <path d="M8.64576 10.0979H10.9233C10.9895 10.0987 11.0553 10.0862 11.1167 10.0614C11.1781 10.0366 11.234 9.99977 11.2811 9.95318C11.3282 9.90659 11.3656 9.85111 11.3912 9.78996C11.4167 9.72882 11.4299 9.66321 11.4299 9.59695C11.4299 9.53068 11.4167 9.46508 11.3912 9.40393C11.3656 9.34278 11.3282 9.28731 11.2811 9.24071C11.234 9.19412 11.1781 9.15734 11.1167 9.13249C11.0553 9.10765 10.9895 9.09524 10.9233 9.09598H8.64576C8.5795 9.09524 8.51375 9.10765 8.45232 9.13249C8.39089 9.15734 8.335 9.19412 8.28788 9.24071C8.24077 9.28731 8.20336 9.34278 8.17783 9.40393C8.15231 9.46508 8.13916 9.53068 8.13916 9.59695C8.13916 9.66321 8.15231 9.72882 8.17783 9.78996C8.20336 9.85111 8.24077 9.90659 8.28788 9.95318C8.335 9.99977 8.39089 10.0366 8.45232 10.0614C8.51375 10.0862 8.5795 10.0987 8.64576 10.0979Z" fill="#E60010"/>
        <path d="M20.7344 9.59692C20.7344 9.72978 20.7872 9.85721 20.8811 9.95116C20.9751 10.0451 21.1025 10.0979 21.2354 10.0979H23.5129C23.5791 10.0987 23.6449 10.0862 23.7063 10.0614C23.7677 10.0366 23.8236 9.99977 23.8707 9.95318C23.9179 9.90659 23.9553 9.85111 23.9808 9.78996C24.0063 9.72882 24.0195 9.66321 24.0195 9.59695C24.0195 9.53068 24.0063 9.46508 23.9808 9.40393C23.9553 9.34278 23.9179 9.28731 23.8707 9.24071C23.8236 9.19412 23.7677 9.15734 23.7063 9.13249C23.6449 9.10765 23.5791 9.09524 23.5129 9.09598H21.2354C21.1025 9.096 20.9751 9.14878 20.8812 9.24271C20.7872 9.33665 20.7344 9.46406 20.7344 9.59692Z" fill="#E60010"/>
    </g>
    <defs>
        <clipPath id="clip0_1_4134">
            <rect width="32" height="32" fill="white" transform="translate(0 0.25)"/>
        </clipPath>
    </defs>
</svg>
