<svg width="20" height="20" viewBox="0 0 20 20" fill="none" xmlns="http://www.w3.org/2000/svg">
    <g clip-path="url(#clip0_23_1207)">
        <path d="M16.875 15.9913L15.625 14.7413V13.125H14.375V15.2587L15.9913 16.875L16.875 15.9913Z" fill="black"/>
        <path d="M15 19.375C14.1347 19.375 13.2888 19.1184 12.5694 18.6377C11.8499 18.157 11.2892 17.4737 10.958 16.6742C10.6269 15.8748 10.5403 14.9951 10.7091 14.1465C10.8779 13.2978 11.2946 12.5183 11.9064 11.9064C12.5183 11.2946 13.2978 10.8779 14.1465 10.7091C14.9951 10.5403 15.8748 10.6269 16.6742 10.958C17.4737 11.2892 18.157 11.8499 18.6377 12.5694C19.1184 13.2888 19.375 14.1347 19.375 15C19.3737 16.1599 18.9124 17.272 18.0922 18.0922C17.272 18.9124 16.1599 19.3737 15 19.375ZM15 11.875C14.3819 11.875 13.7777 12.0583 13.2638 12.4017C12.7499 12.745 12.3494 13.2331 12.1129 13.8041C11.8764 14.3751 11.8145 15.0035 11.935 15.6097C12.0556 16.2159 12.3533 16.7727 12.7903 17.2097C13.2273 17.6467 13.7842 17.9444 14.3903 18.065C14.9965 18.1855 15.6249 18.1236 16.1959 17.8871C16.7669 17.6506 17.255 17.2501 17.5983 16.7362C17.9417 16.2223 18.125 15.6181 18.125 15C18.1241 14.1715 17.7946 13.3772 17.2087 12.7913C16.6229 12.2054 15.8285 11.8759 15 11.875Z" fill="black"/>
        <path d="M10 17.5C8.01156 17.4978 6.10519 16.7069 4.69915 15.3009C3.2931 13.8948 2.50222 11.9884 2.5 10H1.25C1.25261 12.3198 2.17533 14.5439 3.8157 16.1843C5.45608 17.8247 7.68016 18.7474 10 18.75V17.5Z" fill="black"/>
        <path d="M7.5 5H4.424C5.43544 3.86782 6.76705 3.06973 8.24234 2.71148C9.71764 2.35323 11.267 2.45175 12.685 2.99398C14.103 3.53621 15.3228 4.49655 16.1827 5.74772C17.0426 6.9989 17.502 8.48183 17.5 10H18.75C18.7528 8.26048 18.2362 6.55974 17.2664 5.11565C16.2966 3.67155 14.9177 2.54985 13.3065 1.89424C11.6952 1.23862 9.92495 1.07895 8.2224 1.43567C6.51985 1.79238 4.96256 2.64925 3.75 3.8965V1.25H2.5V6.25H7.5V5Z" fill="black"/>
    </g>
    <defs>
        <clipPath id="clip0_23_1207">
            <rect width="20" height="20" fill="white"/>
        </clipPath>
    </defs>
</svg>
