<svg width="20" height="20" viewBox="0 0 20 20" fill="none" xmlns="http://www.w3.org/2000/svg">
<g id="iconamoon:news-light">
<g id="Vector">
<path fill-rule="evenodd" clip-rule="evenodd" d="M2.5 2.83301C2.77614 2.83301 3 3.05687 3 3.33301V14.9997C3 15.3091 3.12292 15.6058 3.34171 15.8246C3.5605 16.0434 3.85725 16.1663 4.16667 16.1663H15.8333C16.1428 16.1663 16.4395 16.0434 16.6583 15.8246C16.8771 15.6058 17 15.3091 17 14.9997V7.16634H14.1667C13.8905 7.16634 13.6667 6.94248 13.6667 6.66634C13.6667 6.3902 13.8905 6.16634 14.1667 6.16634H17.5C17.7761 6.16634 18 6.3902 18 6.66634V14.9997C18 15.5743 17.7717 16.1254 17.3654 16.5317C16.9591 16.9381 16.408 17.1663 15.8333 17.1663H4.16667C3.59203 17.1663 3.04093 16.9381 2.6346 16.5317C2.22827 16.1254 2 15.5743 2 14.9997V3.33301C2 3.05687 2.22386 2.83301 2.5 2.83301Z" fill="black"/>
<path fill-rule="evenodd" clip-rule="evenodd" d="M2 3.33301C2 3.05687 2.22386 2.83301 2.5 2.83301H14.1667C14.4428 2.83301 14.6667 3.05687 14.6667 3.33301V14.9997C14.6667 15.3091 14.7896 15.6058 15.0084 15.8246C15.2272 16.0434 15.5239 16.1663 15.8333 16.1663C16.1095 16.1663 16.3333 16.3902 16.3333 16.6663C16.3333 16.9425 16.1095 17.1663 15.8333 17.1663C15.2587 17.1663 14.7076 16.9381 14.3013 16.5317C13.8949 16.1254 13.6667 15.5743 13.6667 14.9997V3.83301H2.5C2.22386 3.83301 2 3.60915 2 3.33301ZM5.33333 6.66634C5.33333 6.3902 5.55719 6.16634 5.83333 6.16634H10.8333C11.1095 6.16634 11.3333 6.3902 11.3333 6.66634C11.3333 6.94248 11.1095 7.16634 10.8333 7.16634H5.83333C5.55719 7.16634 5.33333 6.94248 5.33333 6.66634ZM7 9.99967C7 9.72353 7.22386 9.49967 7.5 9.49967H10.8333C11.1095 9.49967 11.3333 9.72353 11.3333 9.99967C11.3333 10.2758 11.1095 10.4997 10.8333 10.4997H7.5C7.22386 10.4997 7 10.2758 7 9.99967Z" fill="black"/>
</g>
</g>
</svg>
