<svg width="20" height="20" viewBox="0 0 20 20" fill="none" xmlns="http://www.w3.org/2000/svg">
    <g clip-path="url(#clip0_39_6441)">
        <path d="M10.625 6.25H9.375V11.25H10.625V6.25Z" fill="#000000"/>
        <path d="M13.75 8.75H12.5V11.25H13.75V8.75Z" fill="#000000"/>
        <path d="M7.5 7.5H6.25V11.25H7.5V7.5Z" fill="#000000"/>
        <path d="M15.625 2.5H10.625V1.25H9.375V2.5H4.375C4.04348 2.5 3.72554 2.6317 3.49112 2.86612C3.2567 3.10054 3.125 3.41848 3.125 3.75V12.5C3.125 12.8315 3.2567 13.1495 3.49112 13.3839C3.72554 13.6183 4.04348 13.75 4.375 13.75H9.375V17.5H6.875V18.75H13.125V17.5H10.625V13.75H15.625C15.9565 13.75 16.2745 13.6183 16.5089 13.3839C16.7433 13.1495 16.875 12.8315 16.875 12.5V3.75C16.875 3.41848 16.7433 3.10054 16.5089 2.86612C16.2745 2.6317 15.9565 2.5 15.625 2.5ZM15.625 12.5H4.375V3.75H15.625V12.5Z"
              fill="#000000"/>
    </g>
    <defs>
        <clipPath id="clip0_39_6441">
            <rect width="20" height="20" fill="white"/>
        </clipPath>
    </defs>
</svg>
