<svg width="16" height="17" viewBox="0 0 16 17" fill="none" xmlns="http://www.w3.org/2000/svg">
<path d="M5.79699 13.0699C5.38293 14.2964 4.39855 15.2027 2.95324 15.6871C2.29982 15.9035 1.61794 16.022 0.929802 16.0386C0.805481 16.0386 0.686253 15.9892 0.598345 15.9013C0.510438 15.8134 0.461052 15.6942 0.461052 15.5699C0.477663 14.8817 0.596137 14.1999 0.812614 13.5464C1.29699 12.1011 2.20324 11.1168 3.4298 10.7027C3.48828 10.6831 3.55004 10.6753 3.61156 10.6796C3.67307 10.6839 3.73313 10.7003 3.78828 10.7279C3.84344 10.7555 3.89261 10.7937 3.93298 10.8403C3.97335 10.8869 4.00413 10.941 4.02355 10.9996C4.04423 11.058 4.05293 11.12 4.04911 11.1818C4.04529 11.2437 4.02903 11.3041 4.00132 11.3595C3.97361 11.415 3.935 11.4642 3.88781 11.5044C3.84062 11.5446 3.78582 11.5748 3.72668 11.5933C1.9923 12.1793 1.54699 14.1246 1.43761 15.0621C2.3673 14.9449 4.32824 14.5074 4.90636 12.773C4.92487 12.7139 4.95511 12.6591 4.99527 12.6119C5.03544 12.5647 5.08471 12.5261 5.14014 12.4984C5.19556 12.4706 5.25601 12.4544 5.31786 12.4506C5.37971 12.4468 5.4417 12.4554 5.50011 12.4761C5.55864 12.4955 5.61277 12.5263 5.65938 12.5667C5.70599 12.6071 5.74418 12.6562 5.77176 12.7114C5.79934 12.7666 5.81576 12.8266 5.82009 12.8881C5.82442 12.9496 5.81657 13.0114 5.79699 13.0699ZM13.6329 7.06207L12.8907 7.81207V12.6636C12.8882 12.9532 12.7734 13.2305 12.5704 13.4371L10.0392 15.9605C9.93839 16.0631 9.81796 16.1444 9.68507 16.1994C9.55219 16.2544 9.40957 16.2821 9.26574 16.2808C9.01277 16.2801 8.76785 16.1918 8.57269 16.0308C8.37754 15.8699 8.24421 15.6462 8.19543 15.398L7.57043 12.2652L4.23449 8.92926L1.10168 8.30426C0.906284 8.26665 0.724981 8.17608 0.577562 8.04244C0.430143 7.9088 0.322276 7.73722 0.265739 7.54644C0.207492 7.35775 0.202188 7.15669 0.250408 6.96519C0.298627 6.77369 0.398516 6.59911 0.539177 6.46051L3.06261 3.92926C3.26917 3.72628 3.54647 3.61143 3.83605 3.60894H8.68761L9.43761 2.86676C11.6173 0.679256 13.8517 0.741756 14.7111 0.874568C14.9417 0.907669 15.1555 1.01463 15.3203 1.17941C15.4851 1.3442 15.592 1.55795 15.6251 1.78863C15.7579 2.64801 15.8204 4.88238 13.6329 7.06207ZM1.28136 7.38238L4.31261 7.99176L7.75011 4.54644H3.83605C3.79484 4.54703 3.75553 4.56388 3.72668 4.59332L1.20324 7.12457C1.18315 7.14461 1.16891 7.16974 1.16202 7.19727C1.15514 7.2248 1.15589 7.25368 1.16418 7.28082C1.1716 7.30737 1.18667 7.33116 1.20751 7.34921C1.22834 7.36727 1.25403 7.3788 1.28136 7.38238ZM11.9532 8.74957L8.50793 12.1871L9.1173 15.2183C9.12088 15.2457 9.13241 15.2713 9.15047 15.2922C9.16853 15.313 9.19231 15.3281 9.21886 15.3355C9.246 15.3438 9.27488 15.3445 9.30241 15.3377C9.32994 15.3308 9.35507 15.3165 9.37511 15.2964L11.9064 12.773C11.9358 12.7442 11.9527 12.7048 11.9532 12.6636V8.74957ZM12.9689 6.39801C13.6017 5.77301 15.0236 4.08551 14.7032 1.92926C14.6974 1.89618 14.6815 1.86571 14.6577 1.84196C14.634 1.81821 14.6035 1.80232 14.5704 1.79644C12.4142 1.47613 10.7267 2.89801 10.1017 3.53082L9.21886 4.41363L5.12511 8.49957L8.00011 11.3746L12.0861 7.28082L12.9689 6.39801Z" fill="black"/>
</svg>
