<svg width="20" height="20" viewBox="0 0 20 20" fill="none" xmlns="http://www.w3.org/2000/svg">
    <g clip-path="url(#clip0_23_1219)">
        <path d="M18.2817 4.22503C17.9333 3.87543 17.5193 3.59804 17.0635 3.40877C16.6077 3.2195 16.119 3.12207 15.6254 3.12207C15.1319 3.12207 14.6432 3.2195 14.1873 3.40877C13.7315 3.59804 13.3176 3.87543 12.9692 4.22503L13.8567 5.11253C14.0894 4.87984 14.3656 4.69526 14.6696 4.56934C14.9736 4.44341 15.2995 4.37859 15.6285 4.37859C15.9576 4.37859 16.2835 4.44341 16.5875 4.56934C16.8915 4.69526 17.1677 4.87984 17.4004 5.11253C17.6331 5.34521 17.8177 5.62145 17.9436 5.92547C18.0695 6.22949 18.1344 6.55533 18.1344 6.8844C18.1344 7.21347 18.0695 7.53932 17.9436 7.84333C17.8177 8.14735 17.6331 8.42359 17.4004 8.65628L12.4004 13.6563C11.9313 14.1262 11.2947 14.3905 10.6308 14.3911C9.96676 14.3917 9.32972 14.1285 8.85979 13.6594C8.38986 13.1903 8.12553 12.5537 8.12494 11.8897C8.12436 11.2257 8.38757 10.5887 8.85667 10.1188L9.73792 9.23128L8.85667 8.34378L7.96917 9.23128C7.61957 9.57967 7.34218 9.99364 7.15291 10.4495C6.96364 10.9053 6.86621 11.394 6.86621 11.8875C6.86621 12.3811 6.96364 12.8698 7.15291 13.3256C7.34218 13.7814 7.61957 14.1954 7.96917 14.5438C8.67635 15.2419 9.63171 15.6308 10.6254 15.625C11.1209 15.6271 11.6118 15.5309 12.0699 15.3421C12.5279 15.1533 12.9441 14.8756 13.2942 14.525L18.2942 9.52503C18.9948 8.82025 19.387 7.86619 19.3846 6.87244C19.3823 5.87869 18.9856 4.9265 18.2817 4.22503Z" fill="black"/>
        <path d="M2.61879 15.5124C2.38541 15.2801 2.20022 15.004 2.07386 14.6999C1.94749 14.3958 1.88244 14.0698 1.88244 13.7405C1.88244 13.4112 1.94749 13.0852 2.07386 12.7811C2.20022 12.477 2.38541 12.2009 2.61879 11.9686L7.61879 6.96864C7.85109 6.73526 8.1272 6.55007 8.43127 6.4237C8.73534 6.29734 9.06138 6.23229 9.39067 6.23229C9.71995 6.23229 10.046 6.29734 10.3501 6.4237C10.6541 6.55007 10.9302 6.73526 11.1625 6.96864C11.3944 7.20276 11.577 7.48106 11.6994 7.78702C11.8218 8.09299 11.8815 8.42041 11.875 8.74989C11.8769 9.08039 11.8133 9.40799 11.6878 9.71374C11.5623 10.0195 11.3774 10.2973 11.1438 10.5311L9.81879 11.8749L10.7063 12.7624L12.0313 11.4374C12.7366 10.7321 13.1328 9.77547 13.1328 8.77801C13.1328 7.78056 12.7366 6.82395 12.0313 6.11864C11.326 5.41333 10.3694 5.01709 9.37192 5.01709C8.37446 5.01709 7.41785 5.41333 6.71254 6.11864L1.71254 11.1186C1.362 11.4671 1.08382 11.8815 0.893994 12.3379C0.704168 12.7943 0.606445 13.2837 0.606445 13.778C0.606445 14.2723 0.704168 14.7617 0.893994 15.2181C1.08382 15.6745 1.362 16.0889 1.71254 16.4374C2.42431 17.1302 3.38185 17.5123 4.37504 17.4999C5.37698 17.5008 6.33862 17.1054 7.05004 16.3999L6.16254 15.5124C5.93025 15.7458 5.65413 15.931 5.35006 16.0573C5.04599 16.1837 4.71995 16.2487 4.39067 16.2487C4.06138 16.2487 3.73534 16.1837 3.43127 16.0573C3.1272 15.931 2.85109 15.7458 2.61879 15.5124Z" fill="black"/>
    </g>
    <defs>
        <clipPath id="clip0_23_1219">
            <rect width="20" height="20" fill="white"/>
        </clipPath>
    </defs>
</svg>
