<svg width="32" height="33" viewBox="0 0 32 33" fill="none" xmlns="http://www.w3.org/2000/svg">
<g clip-path="url(#clip0_11_2153)">
<path d="M16 24.5C16.7911 24.5 17.5645 24.2654 18.2223 23.8259C18.8801 23.3864 19.3928 22.7616 19.6955 22.0307C19.9983 21.2998 20.0775 20.4956 19.9231 19.7196C19.7688 18.9437 19.3878 18.231 18.8284 17.6716C18.269 17.1122 17.5563 16.7312 16.7804 16.5769C16.0044 16.4225 15.2002 16.5017 14.4693 16.8045C13.7384 17.1072 13.1136 17.6199 12.6741 18.2777C12.2346 18.9355 12 19.7089 12 20.5C12 21.5609 12.4214 22.5783 13.1716 23.3284C13.9217 24.0786 14.9391 24.5 16 24.5ZM16 18.5C16.3956 18.5 16.7822 18.6173 17.1111 18.8371C17.44 19.0568 17.6964 19.3692 17.8478 19.7346C17.9991 20.1001 18.0387 20.5022 17.9616 20.8902C17.8844 21.2781 17.6939 21.6345 17.4142 21.9142C17.1345 22.1939 16.7781 22.3844 16.3902 22.4616C16.0022 22.5387 15.6001 22.4991 15.2346 22.3478C14.8692 22.1964 14.5568 21.94 14.3371 21.6111C14.1173 21.2822 14 20.8956 14 20.5C14 19.9696 14.2107 19.4609 14.5858 19.0858C14.9609 18.7107 15.4696 18.5 16 18.5Z" fill="#E60010"/>
<path d="M18 6.5H14V8.5H18V6.5Z" fill="#E60010"/>
<path d="M24 2.5H8C7.46973 2.50053 6.96133 2.71141 6.58637 3.08637C6.21141 3.46133 6.00053 3.96973 6 4.5V28.5C6.00061 29.0302 6.21152 29.5386 6.58646 29.9135C6.9614 30.2885 7.46975 30.4994 8 30.5H24C24.5302 30.4993 25.0385 30.2883 25.4134 29.9134C25.7883 29.5385 25.9993 29.0302 26 28.5V4.5C25.9994 3.96975 25.7885 3.4614 25.4135 3.08646C25.0386 2.71152 24.5302 2.50061 24 2.5ZM20 28.5H12V26.5C12 26.2348 12.1054 25.9804 12.2929 25.7929C12.4804 25.6054 12.7348 25.5 13 25.5H19C19.2652 25.5 19.5196 25.6054 19.7071 25.7929C19.8946 25.9804 20 26.2348 20 26.5V28.5ZM22 28.5V26.5C22 25.7044 21.6839 24.9413 21.1213 24.3787C20.5587 23.8161 19.7956 23.5 19 23.5H13C12.2044 23.5 11.4413 23.8161 10.8787 24.3787C10.3161 24.9413 10 25.7044 10 26.5V28.5H8V4.5H24V28.5H22Z" fill="#E60010"/>
</g>
<defs>
<clipPath id="clip0_11_2153">
<rect width="32" height="32" fill="white" transform="translate(0 0.5)"/>
</clipPath>
</defs>
</svg>
