<svg xmlns="http://www.w3.org/2000/svg" width="161" height="39" viewBox="0 0 161 39" fill="none">
    <path d="M0 9.2041L10.0873 3.84057V27.7598L16.6592 31.2542L16.6608 31.2512L16.6624 31.2542L23.2009 27.7776V3.84449L33.5404 9.34212V5.3435L23.4907 0L19.6703 2.03134V25.6562L16.6608 27.2564L13.6179 25.6384V2.0508L9.7755 0.00775759L0 5.20547V9.2041Z" fill="#E60010"/>
    <path d="M3.15234 12.4851V31.0676L16.6503 38.2445L16.6564 38.2331L16.6625 38.2445L30.3881 30.9465V12.4647V8.4661V8.46024L26.8576 6.58301V28.8251L16.6564 34.2492L6.68291 28.9462V6.60343L3.15234 8.48066V8.48653V12.4851Z" fill="black"/>
    <path d="M53.1114 11.1271L48.9052 27.7723H45.1716L41 11.1271H44.3764L46.4046 20.5199C46.4814 20.8691 46.5621 21.2789 46.6466 21.7495C46.7311 22.2125 46.8079 22.6755 46.8771 23.1385C46.9462 23.5939 47 23.9886 47.0384 24.3226C47.0845 23.9886 47.1421 23.5939 47.2113 23.1385C47.2881 22.6755 47.3688 22.2125 47.4533 21.7495C47.5455 21.2865 47.63 20.8767 47.7068 20.5199L49.758 11.1271H53.1114Z" fill="#E60010"/>
    <path d="M63.7939 21.3624C63.7939 22.2505 63.7017 23.093 63.5173 23.8899C63.3406 24.6869 63.0563 25.3928 62.6645 26.0076C62.2804 26.6224 61.7734 27.1082 61.1434 27.4649C60.5211 27.8216 59.7606 28 58.8617 28C58.0243 28 57.2983 27.8254 56.6837 27.4763C56.0691 27.1271 55.5621 26.649 55.1626 26.0417C54.7631 25.4269 54.4635 24.7211 54.2638 23.9241C54.0717 23.1195 53.9757 22.2657 53.9757 21.3624C53.9757 20.0797 54.1447 18.945 54.4827 17.9583C54.8284 16.9639 55.3624 16.186 56.0845 15.6243C56.8143 15.0626 57.7554 14.7818 58.9078 14.7818C59.8988 14.7818 60.7593 15.0361 61.4891 15.5446C62.2266 16.0531 62.7951 16.797 63.1946 17.7761C63.5941 18.7476 63.7939 19.9431 63.7939 21.3624ZM57.0871 21.408C57.0871 22.2884 57.1485 23.0285 57.2714 23.6281C57.402 24.2277 57.598 24.6793 57.8592 24.9829C58.128 25.2865 58.4699 25.4383 58.8848 25.4383C59.3073 25.4383 59.6453 25.2903 59.8988 24.9943C60.1601 24.6907 60.3483 24.2353 60.4635 23.6281C60.5864 23.0209 60.6479 22.2657 60.6479 21.3624C60.6479 20.4668 60.5864 19.723 60.4635 19.1309C60.3483 18.5389 60.1601 18.0949 59.8988 17.7989C59.6453 17.5028 59.3073 17.3548 58.8848 17.3548C58.2548 17.3548 57.7977 17.685 57.5134 18.3454C57.2292 19.0057 57.0871 20.0266 57.0871 21.408Z" fill="#E60010"/>
    <path d="M71.5839 14.7818C71.7529 14.7818 71.9181 14.797 72.0794 14.8273C72.2407 14.8501 72.4289 14.8918 72.644 14.9526L72.3675 18.186C72.2138 18.1252 72.0448 18.0835 71.8604 18.0607C71.6837 18.038 71.4878 18.0266 71.2727 18.0266C70.9193 18.0266 70.6044 18.1025 70.3278 18.2543C70.0512 18.4061 69.8169 18.6262 69.6248 18.9146C69.4405 19.1954 69.2983 19.537 69.1985 19.9393C69.1063 20.334 69.0602 20.778 69.0602 21.2713V27.7723H65.9949V15.0209H68.3572L68.7951 17.1157H68.9449C69.114 16.7135 69.3252 16.334 69.5787 15.9772C69.8323 15.6205 70.128 15.3321 70.4661 15.112C70.8041 14.8918 71.1767 14.7818 71.5839 14.7818Z" fill="#E60010"/>
    <path d="M78.4866 25.3472C78.7017 25.3472 78.9283 25.3207 79.1665 25.2676C79.4123 25.2068 79.6658 25.1157 79.927 24.9943V27.4194C79.589 27.6091 79.2164 27.7533 78.8092 27.852C78.4097 27.9507 77.9834 28 77.5301 28C76.7926 28 76.1895 27.8558 75.7209 27.5674C75.2599 27.2713 74.9219 26.8273 74.7068 26.2353C74.4917 25.6357 74.3841 24.8805 74.3841 23.9696V17.537H73.1165V15.9089L74.6261 15.112L75.3521 12.334H77.4494V15.0209H79.7657V17.537H77.4494V23.8558C77.4494 24.3567 77.5262 24.7324 77.6799 24.9829C77.8412 25.2258 78.1101 25.3472 78.4866 25.3472Z" fill="#E60010"/>
    <path d="M84.7554 15.0209V27.7723H81.6901V15.0209H84.7554ZM83.2228 10C83.799 10 84.2215 10.1518 84.4904 10.4554C84.7593 10.7514 84.8937 11.1841 84.8937 11.7533C84.8937 12.3074 84.7516 12.7324 84.4674 13.0285C84.1908 13.3169 83.7759 13.4611 83.2228 13.4611C82.685 13.4611 82.2702 13.3169 81.9782 13.0285C81.6863 12.7324 81.5403 12.3074 81.5403 11.7533C81.5403 11.1689 81.6748 10.7324 81.9437 10.444C82.2202 10.148 82.6466 10 83.2228 10Z" fill="#E60010"/>
    <path d="M91.7964 28C90.7209 28 89.822 27.7647 89.0999 27.2941C88.3854 26.8159 87.8476 26.0949 87.4866 25.1309C87.1332 24.1594 86.9565 22.9336 86.9565 21.4535C86.9565 20.1632 87.1293 19.0171 87.475 18.0152C87.8207 17.0057 88.3547 16.2163 89.0768 15.6471C89.799 15.0702 90.7209 14.7818 91.8425 14.7818C92.4802 14.7818 93.0525 14.8539 93.5595 14.9981C94.0743 15.1347 94.5544 15.3435 95 15.6243L94.1472 18.0493C93.7939 17.8368 93.4443 17.6812 93.0986 17.5825C92.7606 17.4763 92.4187 17.4232 92.073 17.4232C91.6504 17.4232 91.2894 17.5787 90.9898 17.8899C90.6901 18.1935 90.4597 18.6452 90.2983 19.2448C90.1447 19.8368 90.0679 20.5731 90.0679 21.4535C90.0679 22.3264 90.1447 23.055 90.2983 23.6395C90.4597 24.2239 90.6901 24.6641 90.9898 24.9602C91.2971 25.2486 91.6735 25.3928 92.1191 25.3928C92.557 25.3928 92.9987 25.3131 93.4443 25.1537C93.8899 24.9943 94.3239 24.7628 94.7465 24.4592V27.055C94.3316 27.3814 93.8668 27.6205 93.3521 27.7723C92.8451 27.9241 92.3265 28 91.7964 28Z" fill="#E60010"/>
    <path d="M113.394 11.1271V22.296C113.394 23.5712 113.195 24.63 112.797 25.4725C112.399 26.315 111.813 26.9488 111.04 27.3738C110.266 27.7913 109.309 28 108.168 28C106.507 28 105.228 27.537 104.332 26.611C103.444 25.6774 103 24.2619 103 22.3643V11.1271H106.216V22.2505C106.216 23.3055 106.384 24.0607 106.721 24.5161C107.058 24.9639 107.548 25.1879 108.191 25.1879C108.643 25.1879 109.014 25.093 109.305 24.9032C109.604 24.7059 109.826 24.3909 109.971 23.9583C110.125 23.5256 110.201 22.9488 110.201 22.2277V11.1271H113.394Z" fill="black"/>
    <path d="M121.916 14.7818C123.003 14.7818 123.838 15.1727 124.42 15.9545C125.009 16.7287 125.304 17.8558 125.304 19.3359V27.7723H122.249V20.2125C122.249 19.3169 122.157 18.6414 121.973 18.186C121.79 17.723 121.441 17.4915 120.928 17.4915C120.285 17.4915 119.833 17.8027 119.573 18.425C119.32 19.0474 119.194 20.1176 119.194 21.6357V27.7723H116.139V15.0209H118.562L118.884 16.649H119.079C119.271 16.2467 119.504 15.9089 119.78 15.6357C120.055 15.3548 120.373 15.1423 120.733 14.9981C121.093 14.8539 121.487 14.7818 121.916 14.7818Z" fill="black"/>
    <path d="M131.001 15.0209V27.7723H127.946V15.0209H131.001ZM129.473 10C130.048 10 130.469 10.1518 130.737 10.4554C131.005 10.7514 131.139 11.1841 131.139 11.7533C131.139 12.3074 130.997 12.7324 130.714 13.0285C130.438 13.3169 130.025 13.4611 129.473 13.4611C128.937 13.4611 128.524 13.3169 128.233 13.0285C127.942 12.7324 127.796 12.3074 127.796 11.7533C127.796 11.1689 127.93 10.7324 128.198 10.444C128.474 10.148 128.899 10 129.473 10Z" fill="black"/>
    <path d="M137.961 25.3472C138.175 25.3472 138.401 25.3207 138.638 25.2676C138.883 25.2068 139.136 25.1157 139.396 24.9943V27.4194C139.06 27.6091 138.688 27.7533 138.282 27.852C137.884 27.9507 137.459 28 137.008 28C136.272 28 135.671 27.8558 135.204 27.5674C134.745 27.2713 134.408 26.8273 134.194 26.2353C133.979 25.6357 133.872 24.8805 133.872 23.9696V17.537H132.609V15.9089L134.113 15.112L134.837 12.334H136.927V15.0209H139.236V17.537H136.927V23.8558C136.927 24.3567 137.004 24.7324 137.157 24.9829C137.318 25.2258 137.586 25.3472 137.961 25.3472Z" fill="black"/>
    <path d="M145.311 14.8046C146.276 14.8046 147.091 15.0398 147.758 15.5104C148.431 15.981 148.941 16.649 149.285 17.5142C149.63 18.3719 149.802 19.389 149.802 20.5655V22.2732H143.669C143.684 23.389 143.891 24.2125 144.289 24.7438C144.687 25.2676 145.296 25.5294 146.115 25.5294C146.659 25.5294 147.172 25.4611 147.654 25.3245C148.144 25.1803 148.665 24.9374 149.216 24.5958V27.1233C148.703 27.4269 148.156 27.6471 147.574 27.7837C146.992 27.9279 146.364 28 145.69 28C144.511 28 143.55 27.7381 142.808 27.2144C142.065 26.6831 141.521 25.9317 141.177 24.9602C140.832 23.981 140.66 22.8197 140.66 21.4763C140.66 20.0417 140.832 18.8311 141.177 17.8444C141.529 16.8501 142.05 16.0949 142.739 15.5787C143.428 15.0626 144.285 14.8046 145.311 14.8046ZM145.38 17.1841C144.875 17.1841 144.473 17.4118 144.174 17.8672C143.876 18.315 143.715 19.0512 143.692 20.0759H146.965C146.965 19.4763 146.904 18.9602 146.781 18.5275C146.659 18.0949 146.479 17.7647 146.242 17.537C146.004 17.3017 145.717 17.1841 145.38 17.1841Z" fill="black"/>
    <path d="M155.223 28C153.983 28 153.037 27.4156 152.386 26.2467C151.735 25.0778 151.41 23.4573 151.41 21.3852C151.41 19.3055 151.735 17.685 152.386 16.5237C153.037 15.3624 153.948 14.7818 155.12 14.7818C155.518 14.7818 155.885 14.8501 156.222 14.9867C156.567 15.1233 156.881 15.3321 157.164 15.6129C157.455 15.8861 157.708 16.2315 157.922 16.649H158.037C158.014 16.1556 157.991 15.7343 157.968 15.3852C157.953 15.0285 157.945 14.7287 157.945 14.4858V10.0569H161V27.7723H158.554L158.129 26.3719H157.945C157.7 26.7514 157.443 27.0626 157.175 27.3055C156.915 27.5408 156.628 27.7154 156.314 27.8292C156 27.9431 155.636 28 155.223 28ZM156.13 25.4611C156.743 25.4611 157.198 25.1651 157.497 24.5731C157.796 23.981 157.945 23.0512 157.945 21.7837V21.055C157.945 19.7951 157.799 18.8767 157.509 18.2998C157.225 17.7154 156.766 17.4232 156.13 17.4232C155.579 17.4232 155.169 17.7571 154.901 18.425C154.641 19.0854 154.511 20.0645 154.511 21.3624C154.511 22.7362 154.649 23.7647 154.924 24.4478C155.2 25.1233 155.602 25.4611 156.13 25.4611Z" fill="black"/>
</svg>