<svg width="18" height="14" viewBox="0 0 18 14" fill="none" xmlns="http://www.w3.org/2000/svg">
    <path d="M10.4584 7.58341C9.87508 7.58341 9.38203 7.38203 8.97925 6.97925C8.57647 6.57647 8.37508 6.08341 8.37508 5.50008C8.37508 4.93064 8.57647 4.44119 8.97925 4.03175C9.38203 3.62175 9.87508 3.41675 10.4584 3.41675C11.0417 3.41675 11.5348 3.62175 11.9376 4.03175C12.3404 4.44119 12.5417 4.93064 12.5417 5.50008C12.5417 6.08341 12.3404 6.57647 11.9376 6.97925C11.5348 7.38203 11.0417 7.58341 10.4584 7.58341ZM4.95841 10.1667C4.54175 10.1667 4.18758 10.0209 3.89591 9.72925C3.60425 9.43758 3.45841 9.08341 3.45841 8.66675V2.35425C3.45841 1.93758 3.60425 1.58341 3.89591 1.29175C4.18758 1.00008 4.54175 0.854248 4.95841 0.854248H15.9584C16.3751 0.854248 16.7292 1.00008 17.0209 1.29175C17.3126 1.58341 17.4584 1.93758 17.4584 2.35425V8.66675C17.4584 9.08341 17.3126 9.43758 17.0209 9.72925C16.7292 10.0209 16.3751 10.1667 15.9584 10.1667H4.95841ZM6.20841 8.91675H14.7084C14.7084 8.50008 14.8542 8.14591 15.1459 7.85425C15.4376 7.56258 15.7917 7.41675 16.2084 7.41675V3.60425C15.7917 3.60425 15.4376 3.4548 15.1459 3.15591C14.8542 2.85758 14.7084 2.50703 14.7084 2.10425H6.20841C6.20841 2.52091 6.06258 2.87508 5.77091 3.16675C5.47925 3.45841 5.12508 3.60425 4.70841 3.60425V7.41675C5.12508 7.41675 5.47925 7.56258 5.77091 7.85425C6.06258 8.14591 6.20841 8.50008 6.20841 8.91675ZM14.9792 13.0834H2.04175C1.62508 13.0834 1.27091 12.9376 0.979248 12.6459C0.687581 12.3542 0.541748 12.0001 0.541748 11.5834V3.33341H1.79175V11.5834C1.79175 11.6529 1.81953 11.7117 1.87508 11.7601C1.93064 11.809 1.98619 11.8334 2.04175 11.8334H14.9792V13.0834ZM4.95841 8.91675H4.70841V2.10425H4.95841C4.88897 2.10425 4.83008 2.12869 4.78175 2.17758C4.73286 2.22591 4.70841 2.2848 4.70841 2.35425V8.66675C4.70841 8.73619 4.73286 8.79508 4.78175 8.84341C4.83008 8.8923 4.88897 8.91675 4.95841 8.91675Z" fill="#EB3340"/>
</svg>
