<svg width="124" height="125" viewBox="0 0 124 125" fill="none" xmlns="http://www.w3.org/2000/svg">
<g clip-path="url(#clip0_39_6253)">
<path d="M31 0.5C26.7375 0.5 23.25 3.9875 23.25 8.25V116.75C23.25 121.012 26.7375 124.5 31 124.5H108.5C112.762 124.5 116.25 121.012 116.25 116.75V31.5L85.25 0.5H31Z" fill="#E2E5E7"/>
<path d="M93 31.5H116.25L85.25 0.5V23.75C85.25 28.0125 88.7375 31.5 93 31.5Z" fill="#B0B7BD"/>
<path d="M116.25 54.75L93 31.5H116.25V54.75Z" fill="#CAD1D8"/>
<path d="M100.75 101.25C100.75 103.381 99.0062 105.125 96.875 105.125H11.625C9.49375 105.125 7.75 103.381 7.75 101.25V62.5C7.75 60.3687 9.49375 58.625 11.625 58.625H96.875C99.0062 58.625 100.75 60.3687 100.75 62.5V101.25Z" fill="#F15642"/>
<path d="M24.6406 73.9193C24.6406 72.8963 25.4466 71.7803 26.7447 71.7803H33.9019C37.9319 71.7803 41.5589 74.4773 41.5589 79.6465C41.5589 84.5445 37.9319 87.2725 33.9019 87.2725H28.7287V91.3645C28.7287 92.7285 27.8607 93.4996 26.7447 93.4996C25.7217 93.4996 24.6406 92.7285 24.6406 91.3645V73.9193ZM28.7287 75.6824V83.4014H33.9019C35.9789 83.4014 37.6219 81.5685 37.6219 79.6465C37.6219 77.4804 35.9789 75.6824 33.9019 75.6824H28.7287Z" fill="white"/>
<path d="M47.6273 93.4999C46.6043 93.4999 45.4883 92.9419 45.4883 91.5818V73.9816C45.4883 72.8694 46.6043 72.0596 47.6273 72.0596H54.7224C68.8817 72.0596 68.5717 93.4999 55.0014 93.4999H47.6273ZM49.5803 75.8416V89.7218H54.7224C63.0885 89.7218 63.4605 75.8416 54.7224 75.8416H49.5803Z" fill="white"/>
<path d="M73.5943 76.0895V81.0147H81.4954C82.6114 81.0147 83.7274 82.1307 83.7274 83.2118C83.7274 84.2348 82.6114 85.0718 81.4954 85.0718H73.5943V91.5779C73.5943 92.6629 72.8231 93.496 71.7381 93.496C70.3741 93.496 69.541 92.6629 69.541 91.5779V73.9777C69.541 72.8655 70.378 72.0557 71.7381 72.0557H82.6153C83.9793 72.0557 84.7853 72.8655 84.7853 73.9777C84.7853 74.9697 83.9793 76.0857 82.6153 76.0857H73.5943V76.0895Z" fill="white"/>
<path d="M96.875 105.125H23.25V109H96.875C99.0062 109 100.75 107.256 100.75 105.125V101.25C100.75 103.381 99.0062 105.125 96.875 105.125Z" fill="#CAD1D8"/>
</g>
<defs>
<clipPath id="clip0_39_6253">
<rect width="124" height="124" fill="white" transform="translate(0 0.5)"/>
</clipPath>
</defs>
</svg>
