<svg width="32" height="33" viewBox="0 0 32 33" fill="none" xmlns="http://www.w3.org/2000/svg">
<path d="M16.0003 30.25C13.4003 30.25 11.0394 29.6056 8.91759 28.3167C6.79493 27.0278 5.13359 25.3056 3.93359 23.15V27.1167H1.93359V19.7833H9.26693V21.7833H5.46693C6.44471 23.7389 7.87804 25.3056 9.76693 26.4833C11.6558 27.6611 13.7336 28.25 16.0003 28.25C17.6225 28.25 19.1505 27.95 20.5843 27.35C22.0171 26.75 23.2727 25.9278 24.3509 24.8833C25.4283 23.8389 26.2892 22.6056 26.9336 21.1833C27.578 19.7611 27.9336 18.2278 28.0003 16.5833H30.0003C29.9558 18.4722 29.5558 20.2447 28.8003 21.9007C28.0447 23.5558 27.0389 25.0056 25.7829 26.25C24.5278 27.4944 23.0616 28.4722 21.3843 29.1833C19.706 29.8944 17.9114 30.25 16.0003 30.25ZM15.0669 25.3167V23.65C14.0892 23.4278 13.278 23.022 12.6336 22.4327C11.9892 21.8442 11.4892 21.0611 11.1336 20.0833L12.8336 19.3833C13.1447 20.25 13.5949 20.9113 14.1843 21.3673C14.7727 21.8224 15.4447 22.05 16.2003 22.05C16.9558 22.05 17.6336 21.8611 18.2336 21.4833C18.8336 21.1056 19.1336 20.4944 19.1336 19.65C19.1336 18.9611 18.878 18.4109 18.3669 17.9993C17.8558 17.5887 16.8892 17.1167 15.4669 16.5833C14.0892 16.0944 13.1003 15.5442 12.5003 14.9327C11.9003 14.322 11.6003 13.5167 11.6003 12.5167C11.6003 11.65 11.9114 10.8611 12.5336 10.15C13.1558 9.43889 14.0225 8.98333 15.1336 8.78333V7.18333H16.9336V8.78333C17.6891 8.85 18.3838 9.13311 19.0176 9.63267C19.6505 10.1331 20.1003 10.7389 20.3669 11.45L18.7336 12.1167C18.5114 11.6278 18.1834 11.2167 17.7496 10.8833C17.3167 10.55 16.7558 10.3833 16.0669 10.3833C15.2447 10.3833 14.5949 10.5833 14.1176 10.9833C13.6394 11.3833 13.4003 11.8944 13.4003 12.5167C13.4003 13.1389 13.6336 13.6278 14.1003 13.9833C14.5669 14.3389 15.5003 14.75 16.9003 15.2167C18.5003 15.7944 19.5727 16.4447 20.1176 17.1673C20.6616 17.8891 20.9336 18.7167 20.9336 19.65C20.9336 20.2944 20.8172 20.8553 20.5843 21.3327C20.3505 21.8109 20.0447 22.2109 19.6669 22.5327C19.2892 22.8553 18.8558 23.1113 18.3669 23.3007C17.878 23.4891 17.378 23.6278 16.8669 23.7167V25.3167H15.0669ZM2.00026 15.9167C2.06693 13.9833 2.47804 12.1833 3.23359 10.5167C3.98915 8.85 5.00604 7.39978 6.28426 6.166C7.56159 4.93311 9.03359 3.97222 10.7003 3.28333C12.3669 2.59444 14.1336 2.25 16.0003 2.25C18.578 2.25 20.9389 2.89444 23.0829 4.18333C25.2278 5.47222 26.8891 7.21667 28.0669 9.41667V5.38333H30.0669V12.7167H22.7336V10.7167H26.5336C25.578 8.80556 24.1558 7.25 22.2669 6.05C20.378 4.85 18.2892 4.25 16.0003 4.25C14.4003 4.25 12.8892 4.55 11.4669 5.15C10.0447 5.75 8.78915 6.56644 7.70026 7.59933C6.61137 8.63311 5.73893 9.86111 5.08293 11.2833C4.42782 12.7056 4.06693 14.25 4.00026 15.9167H2.00026Z" fill="#E60010"/>
</svg>
