<svg width="16" height="16" viewBox="0 0 16 16" fill="none" xmlns="http://www.w3.org/2000/svg">
    <g clip-path="url(#clip0_1_1686)">
        <path d="M6.09517 5.14267H11.8976L10.1893 3.4351L10.8571 2.76172L13.7142 5.61886L10.8571 8.476L10.1893 7.80239L11.8962 6.09505H6.09517C5.33741 6.09505 4.61068 6.39607 4.07486 6.93189C3.53905 7.46771 3.23803 8.19443 3.23803 8.9522C3.23803 9.70996 3.53905 10.4367 4.07486 10.9725C4.61068 11.5083 5.33741 11.8093 6.09517 11.8093H9.90469V12.7617H6.09517C5.08482 12.7617 4.11585 12.3604 3.40143 11.6459C2.687 10.9315 2.28564 9.96254 2.28564 8.9522C2.28564 7.94185 2.687 6.97288 3.40143 6.25845C4.11585 5.54403 5.08482 5.14267 6.09517 5.14267Z" fill="#EB3340"/>
    </g>
    <defs>
        <clipPath id="clip0_1_1686">
            <rect width="15.2381" height="15.2381" fill="white" transform="translate(0.380859 0.380859)"/>
        </clipPath>
    </defs>
</svg>
