<svg width="32" height="33" viewBox="0 0 32 33" fill="none" xmlns="http://www.w3.org/2000/svg">
<g clip-path="url(#clip0_11_2164)">
<path d="M26 14.75H24V16.75H26C26.7954 16.7509 27.5579 17.0672 28.1204 17.6296C28.6828 18.1921 28.9991 18.9546 29 19.75V23.75H31V19.75C30.9985 18.4244 30.4712 17.1535 29.5338 16.2162C28.5965 15.2788 27.3256 14.7515 26 14.75Z" fill="#E60010"/>
<path d="M24 4.75C24.5933 4.75 25.1734 4.92595 25.6667 5.25559C26.1601 5.58524 26.5446 6.05377 26.7716 6.60195C26.9987 7.15013 27.0581 7.75333 26.9424 8.33527C26.8266 8.91721 26.5409 9.45176 26.1213 9.87132C25.7018 10.2909 25.1672 10.5766 24.5853 10.6924C24.0033 10.8081 23.4001 10.7487 22.852 10.5216C22.3038 10.2946 21.8352 9.91006 21.5056 9.41671C21.1759 8.92336 21 8.34334 21 7.75C21 6.95435 21.3161 6.19129 21.8787 5.62868C22.4413 5.06607 23.2044 4.75 24 4.75ZM24 2.75C23.0111 2.75 22.0444 3.04324 21.2222 3.59265C20.3999 4.14206 19.759 4.92295 19.3806 5.83658C19.0022 6.75021 18.9031 7.75555 19.0961 8.72545C19.289 9.69536 19.7652 10.5863 20.4645 11.2855C21.1637 11.9848 22.0546 12.461 23.0246 12.6539C23.9945 12.8469 24.9998 12.7478 25.9134 12.3694C26.8271 11.991 27.6079 11.3501 28.1574 10.5279C28.7068 9.70561 29 8.73891 29 7.75C29 6.42392 28.4732 5.15215 27.5355 4.21447C26.5979 3.27678 25.3261 2.75 24 2.75Z" fill="#E60010"/>
<path d="M23 30.75H21V28.75C20.9991 27.9546 20.6828 27.1921 20.1204 26.6296C19.5579 26.0672 18.7954 25.7509 18 25.75H14C13.2046 25.7509 12.4421 26.0672 11.8796 26.6296C11.3172 27.1921 11.0009 27.9546 11 28.75V30.75H9V28.75C9.00156 27.4244 9.52885 26.1535 10.4662 25.2162C11.4035 24.2788 12.6744 23.7516 14 23.75H18C19.3256 23.7516 20.5965 24.2788 21.5338 25.2162C22.4712 26.1535 22.9984 27.4244 23 28.75V30.75Z" fill="#E60010"/>
<path d="M16 13.75C16.5933 13.75 17.1734 13.9259 17.6667 14.2556C18.1601 14.5852 18.5446 15.0538 18.7716 15.6019C18.9987 16.1501 19.0581 16.7533 18.9424 17.3353C18.8266 17.9172 18.5409 18.4518 18.1213 18.8713C17.7018 19.2909 17.1672 19.5766 16.5853 19.6924C16.0033 19.8081 15.4001 19.7487 14.852 19.5216C14.3038 19.2946 13.8352 18.9101 13.5056 18.4167C13.1759 17.9234 13 17.3433 13 16.75C13 15.9544 13.3161 15.1913 13.8787 14.6287C14.4413 14.0661 15.2044 13.75 16 13.75ZM16 11.75C15.0111 11.75 14.0444 12.0432 13.2222 12.5927C12.3999 13.1421 11.759 13.923 11.3806 14.8366C11.0022 15.7502 10.9031 16.7555 11.0961 17.7255C11.289 18.6954 11.7652 19.5863 12.4645 20.2855C13.1637 20.9848 14.0546 21.461 15.0246 21.6539C15.9945 21.8469 16.9998 21.7478 17.9134 21.3694C18.8271 20.991 19.6079 20.3501 20.1574 19.5279C20.7068 18.7056 21 17.7389 21 16.75C21 15.4239 20.4732 14.1521 19.5355 13.2145C18.5979 12.2768 17.3261 11.75 16 11.75Z" fill="#E60010"/>
<path d="M8 14.75H6C4.6744 14.7516 3.40353 15.2788 2.46619 16.2162C1.52885 17.1535 1.00156 18.4244 1 19.75V23.75H3V19.75C3.00087 18.9546 3.31722 18.1921 3.87964 17.6296C4.44206 17.0672 5.20462 16.7509 6 16.75H8V14.75Z" fill="#E60010"/>
<path d="M8 4.75C8.59335 4.75 9.17337 4.92595 9.66671 5.25559C10.1601 5.58524 10.5446 6.05377 10.7716 6.60195C10.9987 7.15013 11.0581 7.75333 10.9424 8.33527C10.8266 8.91721 10.5409 9.45176 10.1213 9.87132C9.70177 10.2909 9.16722 10.5766 8.58527 10.6924C8.00333 10.8081 7.40013 10.7487 6.85195 10.5216C6.30377 10.2946 5.83524 9.91006 5.50559 9.41671C5.17595 8.92336 5 8.34334 5 7.75C5 6.95435 5.31607 6.19129 5.87868 5.62868C6.44129 5.06607 7.20435 4.75 8 4.75ZM8 2.75C7.0111 2.75 6.0444 3.04324 5.22215 3.59265C4.39991 4.14206 3.75904 4.92295 3.3806 5.83658C3.00217 6.75021 2.90315 7.75555 3.09608 8.72545C3.289 9.69536 3.76521 10.5863 4.46447 11.2855C5.16373 11.9848 6.05465 12.461 7.02455 12.6539C7.99446 12.8469 8.99979 12.7478 9.91342 12.3694C10.827 11.991 11.6079 11.3501 12.1573 10.5279C12.7068 9.70561 13 8.73891 13 7.75C13 6.42392 12.4732 5.15215 11.5355 4.21447C10.5979 3.27678 9.32609 2.75 8 2.75Z" fill="#E60010"/>
</g>
<defs>
<clipPath id="clip0_11_2164">
<rect width="32" height="32" fill="white" transform="translate(0 0.75)"/>
</clipPath>
</defs>
</svg>
