<svg width="32" height="33" viewBox="0 0 32 33" fill="none" xmlns="http://www.w3.org/2000/svg">
<g clip-path="url(#clip0_11_2179)">
<path d="M30 28.5H2V30.5H30V28.5Z" fill="#E60010"/>
<path d="M27 11.4996C27.2652 11.4996 27.5196 11.3942 27.7071 11.2067C27.8946 11.0191 28 10.7648 28 10.4996V7.49957C27.9999 7.29406 27.9365 7.09356 27.8184 6.92537C27.7003 6.75717 27.5333 6.62945 27.34 6.55957L16.34 2.55957C16.1203 2.48014 15.8797 2.48014 15.66 2.55957L4.66 6.55957C4.46673 6.62945 4.29968 6.75717 4.18159 6.92537C4.06349 7.09356 4.00009 7.29406 4 7.49957V10.4996C4 10.7648 4.10536 11.0191 4.29289 11.2067C4.48043 11.3942 4.73478 11.4996 5 11.4996H6V24.4996H4V26.4996H28V24.4996H26V11.4996H27ZM6 8.19957L16 4.55957L26 8.19957V9.49957H6V8.19957ZM18 24.4996H14V11.4996H18V24.4996ZM8 11.4996H12V24.4996H8V11.4996ZM24 24.4996H20V11.4996H24V24.4996Z" fill="#E60010"/>
</g>
<defs>
<clipPath id="clip0_11_2179">
<rect width="32" height="32" fill="white" transform="translate(0 0.5)"/>
</clipPath>
</defs>
</svg>
