<svg xmlns="http://www.w3.org/2000/svg" width="19" height="18" viewBox="0 0 19 18" fill="none">
    <path d="M12.6048 10.2712L11.6882 9.35449C12.0493 8.36838 11.8618 7.54894 11.1257 6.89616C10.3895 6.24338 9.59093 6.07671 8.72982 6.39616L7.81315 5.47949C8.04926 5.32671 8.31315 5.2156 8.60482 5.14616C8.89649 5.07671 9.1951 5.04199 9.50065 5.04199C10.4868 5.04199 11.3236 5.38574 12.0111 6.07324C12.6986 6.76074 13.0423 7.59755 13.0423 8.58366C13.0423 8.88921 13.0041 9.1913 12.9277 9.48991C12.8513 9.78852 12.7437 10.0489 12.6048 10.2712ZM15.2923 12.9587L14.459 12.1253C15.1395 11.6253 15.7333 11.0663 16.2402 10.4482C16.7472 9.83019 17.1187 9.20866 17.3548 8.58366C16.6604 7.04199 15.6187 5.82324 14.2298 4.92741C12.8409 4.03158 11.334 3.58366 9.70898 3.58366C9.12565 3.58366 8.52843 3.63921 7.91732 3.75033C7.30621 3.86144 6.82704 3.99338 6.47982 4.14616L5.52148 3.16699C6.0076 2.94477 6.62912 2.75033 7.38607 2.58366C8.14301 2.41699 8.8826 2.33366 9.60482 2.33366C11.5909 2.33366 13.4069 2.89963 15.0527 4.03158C16.6986 5.16352 17.9034 6.68088 18.6673 8.58366C18.3062 9.47255 17.8409 10.285 17.2715 11.0212C16.702 11.7573 16.0423 12.4031 15.2923 12.9587ZM16.5007 17.667L13.0007 14.2295C12.5145 14.4239 11.9659 14.5732 11.3548 14.6774C10.7437 14.7816 10.1257 14.8337 9.50065 14.8337C7.47287 14.8337 5.6326 14.2677 3.97982 13.1357C2.32704 12.0038 1.11176 10.4864 0.333984 8.58366C0.611762 7.86144 0.997179 7.15658 1.49023 6.46908C1.98329 5.78158 2.58398 5.12533 3.29232 4.50033L0.667318 1.87533L1.54232 0.979492L17.3132 16.7503L16.5007 17.667ZM4.14648 5.37533C3.6326 5.75033 3.13607 6.24338 2.6569 6.85449C2.17773 7.4656 1.83398 8.04199 1.62565 8.58366C2.33398 10.1253 3.39996 11.3441 4.82357 12.2399C6.24718 13.1357 7.86176 13.5837 9.66732 13.5837C10.1257 13.5837 10.577 13.5559 11.0215 13.5003C11.4659 13.4448 11.7993 13.3614 12.0215 13.2503L10.6882 11.917C10.5354 11.9864 10.3479 12.0385 10.1257 12.0732C9.90343 12.108 9.6951 12.1253 9.50065 12.1253C8.52843 12.1253 7.6951 11.785 7.00065 11.1045C6.30621 10.4239 5.95898 9.58366 5.95898 8.58366C5.95898 8.37533 5.97635 8.16699 6.01107 7.95866C6.04579 7.75033 6.09787 7.56283 6.16732 7.39616L4.14648 5.37533Z" fill="#9AA1A9"/>
</svg>