<svg xmlns="http://www.w3.org/2000/svg" width="296" height="65" viewBox="0 0 296 65" fill="none">
<path d="M0 15.6432L17.1443 6.52739V47.1803L28.3138 53.1192L28.3165 53.1141L28.3192 53.1192L39.4319 47.2105V6.53406L57.0049 15.8778V9.08175L39.9246 0L33.4314 3.45245V43.605L28.3165 46.3247L23.1448 43.5748V3.48551L16.6143 0.0131847L0 8.84717V15.6432Z" fill="#EB3340"/>
<path d="M5.35742 21.2207V52.8031L28.2984 65.001L28.3087 64.9816L28.3191 65.001L51.6471 52.5973V21.186V14.3899V14.38L45.6466 11.1895V48.9918L28.3087 58.2105L11.3579 49.1977V11.2242L5.35742 14.4147V14.4247V21.2207Z" fill="white"/>
<path d="M100.997 18.3015L93.7724 48.3229H87.359L80.1934 18.3015H85.9932L89.477 35.2424C89.609 35.8722 89.7475 36.6114 89.8927 37.4601C90.0378 38.2952 90.1698 39.1303 90.2886 39.9654C90.4073 40.7867 90.4997 41.4986 90.5657 42.1009C90.6449 41.4986 90.7438 40.7867 90.8626 39.9654C90.9946 39.1303 91.1331 38.2952 91.2783 37.4601C91.4367 36.6251 91.5818 35.8858 91.7138 35.2424L95.2372 18.3015H100.997Z" fill="#EB3340"/>
<path d="M119.347 36.762C119.347 38.3637 119.189 39.8832 118.872 41.3206C118.568 42.758 118.08 44.0312 117.407 45.1401C116.747 46.2489 115.876 47.125 114.794 47.7685C113.725 48.4119 112.419 48.7336 110.875 48.7336C109.436 48.7336 108.189 48.4187 107.134 47.789C106.078 47.1593 105.207 46.2968 104.521 45.2017C103.835 44.0928 103.32 42.8197 102.977 41.3822C102.647 39.9311 102.482 38.391 102.482 36.762C102.482 34.4484 102.772 32.4018 103.353 30.6222C103.947 28.8288 104.864 27.4256 106.104 26.4126C107.358 25.3996 108.975 24.893 110.954 24.893C112.656 24.893 114.134 25.3516 115.388 26.2689C116.655 27.1861 117.631 28.5276 118.318 30.2936C119.004 32.0459 119.347 34.202 119.347 36.762ZM107.827 36.8441C107.827 38.4321 107.932 39.7669 108.143 40.8483C108.368 41.9298 108.704 42.7444 109.153 43.2919C109.615 43.8395 110.202 44.1133 110.914 44.1133C111.64 44.1133 112.221 43.8464 112.656 43.3125C113.105 42.7649 113.428 41.9435 113.626 40.8483C113.837 39.7532 113.943 38.391 113.943 36.762C113.943 35.1466 113.837 33.805 113.626 32.7372C113.428 31.6694 113.105 30.8686 112.656 30.3347C112.221 29.8008 111.64 29.5338 110.914 29.5338C109.832 29.5338 109.047 30.1293 108.559 31.3203C108.071 32.5113 107.827 34.3526 107.827 36.8441Z" fill="#EB3340"/>
<path d="M132.728 24.893C133.018 24.893 133.302 24.9204 133.579 24.9752C133.856 25.0162 134.18 25.0915 134.549 25.2011L134.074 31.0329C133.81 30.9233 133.52 30.848 133.203 30.807C132.9 30.7659 132.563 30.7454 132.194 30.7454C131.587 30.7454 131.046 30.8823 130.57 31.1561C130.095 31.4299 129.693 31.8269 129.363 32.3471C129.046 32.8536 128.802 33.4696 128.631 34.1952C128.472 34.907 128.393 35.7079 128.393 36.5977V48.3229H123.128V25.3243H127.186L127.938 29.1026H128.195C128.485 28.3771 128.848 27.6926 129.284 27.0492C129.719 26.4057 130.227 25.8855 130.808 25.4885C131.389 25.0915 132.029 24.893 132.728 24.893Z" fill="#EB3340"/>
<path d="M144.585 43.949C144.955 43.949 145.344 43.9011 145.753 43.8053C146.175 43.6958 146.611 43.5315 147.059 43.3125V47.6863C146.479 48.0286 145.839 48.2887 145.139 48.4666C144.453 48.6446 143.721 48.7336 142.942 48.7336C141.675 48.7336 140.639 48.4735 139.834 47.9533C139.043 47.4194 138.462 46.6185 138.092 45.5507C137.723 44.4693 137.538 43.1071 137.538 41.4644V29.8624H135.361V26.926L137.954 25.4885L139.201 20.4781H142.803V25.3243H146.782V29.8624H142.803V41.259C142.803 42.1625 142.935 42.8402 143.199 43.2919C143.477 43.73 143.938 43.949 144.585 43.949Z" fill="#EB3340"/>
<path d="M155.353 25.3243V48.3229H150.088V25.3243H155.353ZM152.721 16.2686C153.71 16.2686 154.436 16.5423 154.898 17.0899C155.36 17.6238 155.591 18.4041 155.591 19.4309C155.591 20.4302 155.347 21.1968 154.858 21.7307C154.383 22.2509 153.671 22.511 152.721 22.511C151.797 22.511 151.084 22.2509 150.583 21.7307C150.081 21.1968 149.831 20.4302 149.831 19.4309C149.831 18.3768 150.061 17.5896 150.523 17.0694C150.998 16.5355 151.731 16.2686 152.721 16.2686Z" fill="#EB3340"/>
<path d="M167.448 48.7336C165.6 48.7336 164.056 48.3092 162.816 47.4604C161.589 46.598 160.665 45.2975 160.045 43.5589C159.438 41.8066 159.134 39.5957 159.134 36.9263C159.134 34.599 159.431 32.5319 160.025 30.7248C160.619 28.9041 161.536 27.4804 162.776 26.4537C164.017 25.4132 165.6 24.893 167.527 24.893C168.622 24.893 169.605 25.0231 170.476 25.2832C171.36 25.5296 172.185 25.9061 172.951 26.4126L171.486 30.7864C170.879 30.4031 170.278 30.1225 169.684 29.9445C169.104 29.7529 168.517 29.657 167.923 29.657C167.197 29.657 166.577 29.9377 166.062 30.499C165.547 31.0465 165.152 31.8611 164.874 32.9426C164.61 34.0104 164.479 35.3383 164.479 36.9263C164.479 38.5006 164.61 39.8148 164.874 40.8689C165.152 41.923 165.547 42.717 166.062 43.2509C166.59 43.7711 167.237 44.0312 168.002 44.0312C168.754 44.0312 169.513 43.8874 170.278 43.6C171.044 43.3125 171.789 42.8949 172.515 42.3474V47.0292C171.802 47.6179 171.004 48.0491 170.12 48.3229C169.249 48.5967 168.358 48.7336 167.448 48.7336Z" fill="#EB3340"/>
<path d="M214.01 18.3015V38.4458C214.01 40.7457 213.668 42.6554 212.983 44.1749C212.299 45.6945 211.292 46.8376 209.962 47.6042C208.633 48.3571 206.987 48.7336 205.026 48.7336C202.17 48.7336 199.971 47.8985 198.431 46.2284C196.904 44.5445 196.141 41.9914 196.141 38.569V18.3015H201.669V38.3637C201.669 40.2665 201.959 41.6287 202.538 42.45C203.117 43.2577 203.96 43.6616 205.066 43.6616C205.842 43.6616 206.481 43.4904 206.981 43.1482C207.494 42.7923 207.876 42.2242 208.126 41.4438C208.389 40.6635 208.521 39.6231 208.521 38.3226V18.3015H214.01Z" fill="white"/>
<path d="M228.661 24.893C230.53 24.893 231.965 25.5981 232.966 27.0081C233.979 28.4044 234.486 30.4374 234.486 33.1068V48.3229H229.234V34.688C229.234 33.0726 229.076 31.8542 228.76 31.0329C228.444 30.1978 227.845 29.7802 226.963 29.7802C225.857 29.7802 225.081 30.3415 224.633 31.4641C224.199 32.5866 223.982 34.5169 223.982 37.2548V48.3229H218.729V25.3243H222.896L223.448 28.2607H223.784C224.113 27.5351 224.515 26.926 224.989 26.4331C225.462 25.9266 226.009 25.5433 226.627 25.2832C227.246 25.0231 227.924 24.893 228.661 24.893Z" fill="white"/>
<path d="M244.28 25.3243V48.3229H239.028V25.3243H244.28ZM241.654 16.2686C242.641 16.2686 243.365 16.5423 243.826 17.0899C244.286 17.6238 244.517 18.4041 244.517 19.4309C244.517 20.4302 244.273 21.1968 243.786 21.7307C243.312 22.2509 242.601 22.511 241.654 22.511C240.732 22.511 240.021 22.2509 239.521 21.7307C239.021 21.1968 238.771 20.4302 238.771 19.4309C238.771 18.3768 239.001 17.5896 239.462 17.0694C239.936 16.5355 240.666 16.2686 241.654 16.2686Z" fill="white"/>
<path d="M256.245 43.949C256.614 43.949 257.002 43.9011 257.41 43.8053C257.832 43.6958 258.266 43.5315 258.714 43.3125V47.6863C258.134 48.0286 257.496 48.2887 256.798 48.4666C256.114 48.6446 255.383 48.7336 254.607 48.7336C253.343 48.7336 252.31 48.4735 251.507 47.9533C250.717 47.4194 250.138 46.6185 249.769 45.5507C249.4 44.4693 249.216 43.1071 249.216 41.4644V29.8624H247.044V26.926L249.631 25.4885L250.875 20.4781H254.468V25.3243H258.437V29.8624H254.468V41.259C254.468 42.1625 254.6 42.8402 254.863 43.2919C255.14 43.73 255.6 43.949 256.245 43.949Z" fill="white"/>
<path d="M268.882 24.9341C270.541 24.9341 271.943 25.3585 273.088 26.2072C274.247 27.056 275.122 28.2607 275.714 29.8213C276.307 31.3683 276.603 33.2027 276.603 35.3246V38.4047H266.059C266.085 40.4171 266.441 41.9024 267.125 42.8607C267.81 43.8053 268.856 44.2776 270.265 44.2776C271.199 44.2776 272.081 44.1544 272.911 43.908C273.753 43.6479 274.648 43.2098 275.596 42.5938V47.1524C274.714 47.7 273.773 48.097 272.772 48.3434C271.772 48.6035 270.692 48.7336 269.534 48.7336C267.507 48.7336 265.855 48.2613 264.578 47.3167C263.301 46.3584 262.367 45.0032 261.774 43.2509C261.182 41.4849 260.886 39.3904 260.886 36.9673C260.886 34.38 261.182 32.1965 261.774 30.4168C262.38 28.6235 263.275 27.2614 264.46 26.3305C265.644 25.3996 267.119 24.9341 268.882 24.9341ZM269.001 29.2258C268.132 29.2258 267.441 29.6365 266.928 30.4579C266.414 31.2656 266.138 32.5935 266.098 34.4416H271.726C271.726 33.3601 271.621 32.4292 271.41 31.6489C271.199 30.8686 270.89 30.2731 270.482 29.8624C270.074 29.438 269.58 29.2258 269.001 29.2258Z" fill="white"/>
<path d="M285.923 48.7336C283.79 48.7336 282.165 47.6795 281.046 45.5713C279.927 43.4631 279.367 40.5403 279.367 36.803C279.367 33.0521 279.927 30.1293 281.046 28.0348C282.165 25.9403 283.731 24.893 285.745 24.893C286.43 24.893 287.061 25.0162 287.641 25.2627C288.233 25.5091 288.773 25.8855 289.26 26.3921C289.76 26.8849 290.194 27.5078 290.563 28.2607H290.76C290.721 27.3709 290.681 26.6111 290.642 25.9814C290.616 25.338 290.602 24.7972 290.602 24.3591V16.3712H295.855V48.3229H291.649L290.918 45.7972H290.602C290.181 46.4816 289.74 47.0429 289.279 47.481C288.832 47.9054 288.338 48.2202 287.799 48.4256C287.259 48.6309 286.634 48.7336 285.923 48.7336ZM287.483 44.1544C288.536 44.1544 289.319 43.6205 289.832 42.5527C290.346 41.4849 290.602 39.8079 290.602 37.5218V36.2075C290.602 33.9351 290.352 32.2786 289.852 31.2382C289.365 30.1841 288.575 29.657 287.483 29.657C286.535 29.657 285.831 30.2594 285.37 31.4641C284.922 32.6551 284.699 34.421 284.699 36.762C284.699 39.2398 284.935 41.0948 285.409 42.3268C285.883 43.5452 286.574 44.1544 287.483 44.1544Z" fill="white"/>
</svg>